<svg xmlns="http://www.w3.org/2000/svg" width="4480" height="2935" viewBox="0 0 4480 2935" class="diagram-root interconnection-view"><style>.diagram-root{--diagram-paper:#1e1e1e;--diagram-ink:#d4d4d4;--diagram-muted:#a0a0a0;--diagram-faint:#6b6b6b;}</style><style>:root{color-scheme:light dark}.diagram-root{--diagram-paper:var(--vscode-editor-background,#1e1e1e);--diagram-ink:var(--vscode-editor-foreground,#d4d4d4);--diagram-muted:#a0a0a0;--diagram-faint:#6b6b6b;--diagram-border:var(--diagram-ink);--diagram-edge:var(--diagram-ink);--diagram-edge-label:var(--diagram-edge);--diagram-port-stroke:var(--diagram-edge);--diagram-port-label:var(--diagram-ink);}.interconnection-view{--diagram-border:#8f99a3;--diagram-edge:#6fd3ff;--diagram-edge-label:#8eddff;--diagram-port-stroke:var(--diagram-edge);--diagram-port-label:#dbefff;}.diagram-viewport{font-family:var(--vscode-editor-font-family, sans-serif)}.diagram-edge{fill:none;stroke:var(--diagram-edge);opacity:1}.diagram-edge-label{font-size:10px;font-weight:400;fill:var(--diagram-edge-label);paint-order:stroke;stroke:var(--diagram-paper);stroke-width:3px;stroke-linejoin:round}.diagram-port{fill:var(--diagram-paper);stroke:var(--diagram-port-stroke);stroke-width:1.2px}.diagram-port-label{font-size:10px;fill:var(--diagram-port-label)}.diagram-stereotype{font-size:9px;fill:var(--diagram-muted)}.diagram-title{fill:var(--diagram-ink);font-size:11px;font-weight:700}.diagram-typed-by{font-size:10px;font-style:italic;fill:var(--diagram-ink)}.diagram-detail{font-size:10px;fill:var(--diagram-ink)}.diagram-compartment-title{font-size:9px;font-weight:700;fill:var(--diagram-muted)}.diagram-divider{stroke:var(--diagram-faint);stroke-width:1px;opacity:.8}.node-background{fill:var(--diagram-paper);stroke:var(--diagram-border)}@media print {.diagram-root{--diagram-paper:#ffffff;--diagram-ink:#000000;--diagram-muted:#333333;--diagram-faint:#b5b5b5;--diagram-border:#5f5f5f;--diagram-edge:#000000;--diagram-edge-label:#000000;--diagram-port-stroke:#000000;--diagram-port-label:#000000;}}</style><defs><marker id="edge-arrow-solid" viewBox="0 -5 10 10" refX="9" refY="0" markerWidth="7" markerHeight="7" orient="auto"><path d="M0,-4L10,0L0,4Z" fill="context-stroke"/></marker><marker id="edge-arrow-open" viewBox="0 -5 10 10" refX="9" refY="0" markerWidth="8" markerHeight="8" orient="auto"><path d="M0,-4L10,0L0,4" fill="none" stroke="context-stroke" stroke-width="1.3"/></marker><marker id="edge-triangle-hollow" viewBox="0 -6 12 12" refX="11" refY="0" markerWidth="8" markerHeight="8" orient="auto"><path d="M0,0L10,-4L10,4Z" fill="var(--diagram-paper,#ffffff)" stroke="context-stroke" stroke-width="1.2"/></marker><marker id="edge-diamond-solid" viewBox="0 -6 12 12" refX="2" refY="0" markerWidth="9" markerHeight="9" orient="auto"><path d="M2,0L6,-4L10,0L6,4Z" fill="context-stroke" stroke="context-stroke" stroke-width="1"/></marker><marker id="edge-dot" viewBox="0 0 10 10" refX="5" refY="5" markerWidth="6" markerHeight="6"><circle cx="5" cy="5" r="2.4" fill="context-stroke"/></marker></defs><g class="diagram-viewport"><g class="diagram-node part-def" data-element-id="SurveillanceDrone.SurveillanceQuadrotorDrone" data-element-name="SurveillanceQuadrotorDrone" data-qualified-name="SurveillanceDrone.SurveillanceQuadrotorDrone"><rect class="node-background" x="140.0" y="140.0" width="4200.0" height="2610.8" rx="4.0" ry="4.0" style="fill:var(--diagram-paper);stroke:var(--diagram-border);stroke-width:1.6px;stroke-dasharray:none"/><rect class="node-background" x="140.0" y="140.0" width="4200.0" height="40.0" rx="4.0" ry="4.0" style="fill:var(--diagram-paper);stroke:var(--diagram-border);stroke-width:1.6px;stroke-dasharray:none"/><line class="diagram-divider" x1="146.0" y1="180.0" x2="4334.0" y2="180.0" style="stroke:var(--diagram-faint)"/><text x="2240.0" y="157.0" class="diagram-stereotype" text-anchor="middle">&#171;part def&#187;</text><text x="2240.0" y="173.0" class="diagram-title" text-anchor="middle">SurveillanceQuadrotorDrone</text></g><g class="diagram-node part" data-element-id="SurveillanceDrone.SurveillanceQuadrotorDrone.airframe" data-element-name="airframe" data-qualified-name="SurveillanceDrone.SurveillanceQuadrotorDrone.airframe"><rect class="node-background" x="280.0" y="2510.8" width="260.0" height="100.0" rx="8.0" ry="8.0" style="fill:var(--diagram-paper);stroke:var(--diagram-border);stroke-width:1.6px;stroke-dasharray:none"/><rect x="280.0" y="2511.8" width="260.0" height="39" rx="6.0" ry="6.0" style="fill:var(--diagram-paper);stroke:none"/><text x="410.0" y="2527.8" class="diagram-stereotype" text-anchor="middle">&#171;part&#187;</text><text x="410.0" y="2541.8" class="diagram-title" text-anchor="middle">airframe</text><text x="410.0" y="2553.8" class="diagram-typed-by" text-anchor="middle">: Airframe</text></g><g class="diagram-node part" data-element-id="SurveillanceDrone.SurveillanceQuadrotorDrone.cameraPayload" data-element-name="cameraPayload" data-qualified-name="SurveillanceDrone.SurveillanceQuadrotorDrone.cameraPayload"><rect class="node-background" x="3576.0" y="459.7" width="260.0" height="136.0" rx="8.0" ry="8.0" style="fill:var(--diagram-paper);stroke:var(--diagram-border);stroke-width:1.6px;stroke-dasharray:none"/><rect x="3576.0" y="460.7" width="260.0" height="39" rx="6.0" ry="6.0" style="fill:var(--diagram-paper);stroke:none"/><text x="3706.0" y="476.7" class="diagram-stereotype" text-anchor="middle">&#171;part&#187;</text><text x="3706.0" y="490.7" class="diagram-title" text-anchor="middle">cameraPayload</text><text x="3706.0" y="502.7" class="diagram-typed-by" text-anchor="middle">: CameraPayload</text><rect class="diagram-port" x="3840.0" y="523.7" width="8" height="8" data-port-id="SurveillanceDrone.SurveillanceQuadrotorDrone.cameraPayload.videoOut"/><text class="diagram-port-label" x="3836.0" y="531.7" text-anchor="end">videoOut</text><rect class="diagram-port" x="3564.0" y="557.7" width="8" height="8" data-port-id="SurveillanceDrone.SurveillanceQuadrotorDrone.cameraPayload.control"/><text class="diagram-port-label" x="3576.0" y="565.7" text-anchor="start">control</text><rect class="diagram-port" x="3564.0" y="489.7" width="8" height="8" data-port-id="SurveillanceDrone.SurveillanceQuadrotorDrone.cameraPayload.pwr"/><text class="diagram-port-label" x="3576.0" y="497.7" text-anchor="start">pwr</text></g><g class="diagram-node part" data-element-id="SurveillanceDrone.SurveillanceQuadrotorDrone.communication" data-element-name="communication" data-qualified-name="SurveillanceDrone.SurveillanceQuadrotorDrone.communication"><rect class="node-background" x="3940.0" y="280.0" width="260.0" height="148.0" rx="8.0" ry="8.0" style="fill:var(--diagram-paper);stroke:var(--diagram-border);stroke-width:1.6px;stroke-dasharray:none"/><rect x="3940.0" y="281.0" width="260.0" height="39" rx="6.0" ry="6.0" style="fill:var(--diagram-paper);stroke:none"/><text x="4070.0" y="297.0" class="diagram-stereotype" text-anchor="middle">&#171;part&#187;</text><text x="4070.0" y="311.0" class="diagram-title" text-anchor="middle">communication</text><text x="4070.0" y="323.0" class="diagram-typed-by" text-anchor="middle">: Communication</text><rect class="diagram-port" x="3928.0" y="402.9" width="8" height="8" data-port-id="SurveillanceDrone.SurveillanceQuadrotorDrone.communication.c2In"/><text class="diagram-port-label" x="3940.0" y="410.9" text-anchor="start">c2In</text><rect class="diagram-port" x="3928.0" y="381.7" width="8" height="8" data-port-id="SurveillanceDrone.SurveillanceQuadrotorDrone.communication.telemetryIn"/><text class="diagram-port-label" x="3940.0" y="389.7" text-anchor="start">telemetryIn</text><rect class="diagram-port" x="3928.0" y="339.4" width="8" height="8" data-port-id="SurveillanceDrone.SurveillanceQuadrotorDrone.communication.videoIn"/><text class="diagram-port-label" x="3940.0" y="347.4" text-anchor="start">videoIn</text><rect class="diagram-port" x="3928.0" y="297.1" width="8" height="8" data-port-id="SurveillanceDrone.SurveillanceQuadrotorDrone.communication.pwr"/><text class="diagram-port-label" x="3940.0" y="305.1" text-anchor="start">pwr</text></g><g class="diagram-node part" data-element-id="SurveillanceDrone.SurveillanceQuadrotorDrone.flightControl" data-element-name="flightControl" data-qualified-name="SurveillanceDrone.SurveillanceQuadrotorDrone.flightControl"><rect class="node-background" x="1664.0" y="682.5" width="1056.0" height="1316.0" rx="8.0" ry="8.0" style="fill:var(--diagram-paper);stroke:var(--diagram-border);stroke-width:1.6px;stroke-dasharray:none"/><rect x="1664.0" y="683.5" width="1056.0" height="39" rx="6.0" ry="6.0" style="fill:var(--diagram-paper);stroke:none"/><text x="2192.0" y="699.5" class="diagram-stereotype" text-anchor="middle">&#171;part&#187;</text><text x="2192.0" y="713.5" class="diagram-title" text-anchor="middle">flightControl</text><text x="2192.0" y="725.5" class="diagram-typed-by" text-anchor="middle">: FlightControlAndSensing</text></g><g class="diagram-node part" data-element-id="SurveillanceDrone.SurveillanceQuadrotorDrone.flightControl.barometer" data-element-name="barometer" data-qualified-name="SurveillanceDrone.SurveillanceQuadrotorDrone.flightControl.barometer"><rect class="node-background" x="1804.0" y="1222.5" width="260.0" height="124.0" rx="8.0" ry="8.0" style="fill:var(--diagram-paper);stroke:var(--diagram-border);stroke-width:1.6px;stroke-dasharray:none"/><rect x="1804.0" y="1223.5" width="260.0" height="39" rx="6.0" ry="6.0" style="fill:var(--diagram-paper);stroke:none"/><text x="1934.0" y="1239.5" class="diagram-stereotype" text-anchor="middle">&#171;part&#187;</text><text x="1934.0" y="1253.5" class="diagram-title" text-anchor="middle">barometer</text><text x="1934.0" y="1265.5" class="diagram-typed-by" text-anchor="middle">: Barometer</text><rect class="diagram-port" x="2068.0" y="1280.5" width="8" height="8" data-port-id="SurveillanceDrone.SurveillanceQuadrotorDrone.flightControl.barometer.altitudeOut"/><text class="diagram-port-label" x="2064.0" y="1288.5" text-anchor="end">altitudeOut</text><rect class="diagram-port" x="1792.0" y="1280.5" width="8" height="8" data-port-id="SurveillanceDrone.SurveillanceQuadrotorDrone.flightControl.barometer.pwr"/><text class="diagram-port-label" x="1804.0" y="1288.5" text-anchor="start">pwr</text></g><g class="diagram-node part" data-element-id="SurveillanceDrone.SurveillanceQuadrotorDrone.flightControl.flightController" data-element-name="flightController" data-qualified-name="SurveillanceDrone.SurveillanceQuadrotorDrone.flightControl.flightController"><rect class="node-background" x="2152.0" y="851.2" width="260.0" height="172.0" rx="8.0" ry="8.0" style="fill:var(--diagram-paper);stroke:var(--diagram-border);stroke-width:1.6px;stroke-dasharray:none"/><rect x="2152.0" y="852.2" width="260.0" height="39" rx="6.0" ry="6.0" style="fill:var(--diagram-paper);stroke:none"/><text x="2282.0" y="868.2" class="diagram-stereotype" text-anchor="middle">&#171;part&#187;</text><text x="2282.0" y="882.2" class="diagram-title" text-anchor="middle">flightController</text><text x="2282.0" y="894.2" class="diagram-typed-by" text-anchor="middle">: FlightController</text><rect class="diagram-port" x="2416.0" y="904.5" width="8" height="8" data-port-id="SurveillanceDrone.SurveillanceQuadrotorDrone.flightControl.flightController.motorCmd"/><text class="diagram-port-label" x="2412.0" y="912.5" text-anchor="end">motorCmd</text><rect class="diagram-port" x="2140.0" y="881.6" width="8" height="8" data-port-id="SurveillanceDrone.SurveillanceQuadrotorDrone.flightControl.flightController.gimbalCmd"/><text class="diagram-port-label" x="2152.0" y="889.6" text-anchor="start">gimbalCmd</text><rect class="diagram-port" x="2416.0" y="961.8" width="8" height="8" data-port-id="SurveillanceDrone.SurveillanceQuadrotorDrone.flightControl.flightController.telemetryOut"/><text class="diagram-port-label" x="2412.0" y="969.8" text-anchor="end">telemetryOut</text><rect class="diagram-port" x="2140.0" y="984.8" width="8" height="8" data-port-id="SurveillanceDrone.SurveillanceQuadrotorDrone.flightControl.flightController.rcIn"/><text class="diagram-port-label" x="2152.0" y="992.8" text-anchor="start">rcIn</text><rect class="diagram-port" x="2140.0" y="950.4" width="8" height="8" data-port-id="SurveillanceDrone.SurveillanceQuadrotorDrone.flightControl.flightController.sensorIn"/><text class="diagram-port-label" x="2152.0" y="958.4" text-anchor="start">sensorIn</text><rect class="diagram-port" x="2140.0" y="916.0" width="8" height="8" data-port-id="SurveillanceDrone.SurveillanceQuadrotorDrone.flightControl.flightController.pwr"/><text class="diagram-port-label" x="2152.0" y="924.0" text-anchor="start">pwr</text></g><g class="diagram-node part" data-element-id="SurveillanceDrone.SurveillanceQuadrotorDrone.flightControl.gnss" data-element-name="gnss" data-qualified-name="SurveillanceDrone.SurveillanceQuadrotorDrone.flightControl.gnss"><rect class="node-background" x="1804.0" y="1478.5" width="260.0" height="124.0" rx="8.0" ry="8.0" style="fill:var(--diagram-paper);stroke:var(--diagram-border);stroke-width:1.6px;stroke-dasharray:none"/><rect x="1804.0" y="1479.5" width="260.0" height="39" rx="6.0" ry="6.0" style="fill:var(--diagram-paper);stroke:none"/><text x="1934.0" y="1495.5" class="diagram-stereotype" text-anchor="middle">&#171;part&#187;</text><text x="1934.0" y="1509.5" class="diagram-title" text-anchor="middle">gnss</text><text x="1934.0" y="1521.5" class="diagram-typed-by" text-anchor="middle">: GNSSReceiver</text><rect class="diagram-port" x="2068.0" y="1536.5" width="8" height="8" data-port-id="SurveillanceDrone.SurveillanceQuadrotorDrone.flightControl.gnss.positionOut"/><text class="diagram-port-label" x="2064.0" y="1544.5" text-anchor="end">positionOut</text><rect class="diagram-port" x="1792.0" y="1536.5" width="8" height="8" data-port-id="SurveillanceDrone.SurveillanceQuadrotorDrone.flightControl.gnss.pwr"/><text class="diagram-port-label" x="1804.0" y="1544.5" text-anchor="start">pwr</text></g><g class="diagram-node part" data-element-id="SurveillanceDrone.SurveillanceQuadrotorDrone.flightControl.imu" data-element-name="imu" data-qualified-name="SurveillanceDrone.SurveillanceQuadrotorDrone.flightControl.imu"><rect class="node-background" x="1804.0" y="1734.5" width="260.0" height="124.0" rx="8.0" ry="8.0" style="fill:var(--diagram-paper);stroke:var(--diagram-border);stroke-width:1.6px;stroke-dasharray:none"/><rect x="1804.0" y="1735.5" width="260.0" height="39" rx="6.0" ry="6.0" style="fill:var(--diagram-paper);stroke:none"/><text x="1934.0" y="1751.5" class="diagram-stereotype" text-anchor="middle">&#171;part&#187;</text><text x="1934.0" y="1765.5" class="diagram-title" text-anchor="middle">imu</text><text x="1934.0" y="1777.5" class="diagram-typed-by" text-anchor="middle">: IMU</text><rect class="diagram-port" x="2068.0" y="1792.5" width="8" height="8" data-port-id="SurveillanceDrone.SurveillanceQuadrotorDrone.flightControl.imu.dataOut"/><text class="diagram-port-label" x="2064.0" y="1800.5" text-anchor="end">dataOut</text><rect class="diagram-port" x="1792.0" y="1792.5" width="8" height="8" data-port-id="SurveillanceDrone.SurveillanceQuadrotorDrone.flightControl.imu.pwr"/><text class="diagram-port-label" x="1804.0" y="1800.5" text-anchor="start">pwr</text></g><g class="diagram-node part" data-element-id="SurveillanceDrone.SurveillanceQuadrotorDrone.gimbal" data-element-name="gimbal" data-qualified-name="SurveillanceDrone.SurveillanceQuadrotorDrone.gimbal"><rect class="node-background" x="2852.0" y="567.7" width="260.0" height="136.0" rx="8.0" ry="8.0" style="fill:var(--diagram-paper);stroke:var(--diagram-border);stroke-width:1.6px;stroke-dasharray:none"/><rect x="2852.0" y="568.7" width="260.0" height="39" rx="6.0" ry="6.0" style="fill:var(--diagram-paper);stroke:none"/><text x="2982.0" y="584.7" class="diagram-stereotype" text-anchor="middle">&#171;part&#187;</text><text x="2982.0" y="598.7" class="diagram-title" text-anchor="middle">gimbal</text><text x="2982.0" y="610.7" class="diagram-typed-by" text-anchor="middle">: Gimbal</text><rect class="diagram-port" x="2840.0" y="645.3" width="8" height="8" data-port-id="SurveillanceDrone.SurveillanceQuadrotorDrone.gimbal.cmd"/><text class="diagram-port-label" x="2852.0" y="653.3" text-anchor="start">cmd</text><rect class="diagram-port" x="3116.0" y="631.7" width="8" height="8" data-port-id="SurveillanceDrone.SurveillanceQuadrotorDrone.gimbal.cameraCtrl"/><text class="diagram-port-label" x="3112.0" y="639.7" text-anchor="end">cameraCtrl</text><rect class="diagram-port" x="2840.0" y="590.9" width="8" height="8" data-port-id="SurveillanceDrone.SurveillanceQuadrotorDrone.gimbal.pwr"/><text class="diagram-port-label" x="2852.0" y="598.9" text-anchor="start">pwr</text></g><g class="diagram-node part" data-element-id="SurveillanceDrone.SurveillanceQuadrotorDrone.power" data-element-name="power" data-qualified-name="SurveillanceDrone.SurveillanceQuadrotorDrone.power"><rect class="node-background" x="280.0" y="682.5" width="1140.0" height="696.0" rx="8.0" ry="8.0" style="fill:var(--diagram-paper);stroke:var(--diagram-border);stroke-width:1.6px;stroke-dasharray:none"/><rect x="280.0" y="683.5" width="1140.0" height="39" rx="6.0" ry="6.0" style="fill:var(--diagram-paper);stroke:none"/><text x="850.0" y="699.5" class="diagram-stereotype" text-anchor="middle">&#171;part&#187;</text><text x="850.0" y="713.5" class="diagram-title" text-anchor="middle">power</text><text x="850.0" y="725.5" class="diagram-typed-by" text-anchor="middle">: Power</text></g><g class="diagram-node part" data-element-id="SurveillanceDrone.SurveillanceQuadrotorDrone.power.battery" data-element-name="battery" data-qualified-name="SurveillanceDrone.SurveillanceQuadrotorDrone.power.battery"><rect class="node-background" x="420.0" y="890.5" width="260.0" height="112.0" rx="8.0" ry="8.0" style="fill:var(--diagram-paper);stroke:var(--diagram-border);stroke-width:1.6px;stroke-dasharray:none"/><rect x="420.0" y="891.5" width="260.0" height="39" rx="6.0" ry="6.0" style="fill:var(--diagram-paper);stroke:none"/><text x="550.0" y="907.5" class="diagram-stereotype" text-anchor="middle">&#171;part&#187;</text><text x="550.0" y="921.5" class="diagram-title" text-anchor="middle">battery</text><text x="550.0" y="933.5" class="diagram-typed-by" text-anchor="middle">: Battery</text><rect class="diagram-port" x="684.0" y="942.5" width="8" height="8" data-port-id="SurveillanceDrone.SurveillanceQuadrotorDrone.power.battery.pwrOut"/><text class="diagram-port-label" x="680.0" y="950.5" text-anchor="end">pwrOut</text></g><g class="diagram-node part" data-element-id="SurveillanceDrone.SurveillanceQuadrotorDrone.power.distribution" data-element-name="distribution" data-qualified-name="SurveillanceDrone.SurveillanceQuadrotorDrone.power.distribution"><rect class="node-background" x="768.0" y="890.5" width="260.0" height="136.0" rx="8.0" ry="8.0" style="fill:var(--diagram-paper);stroke:var(--diagram-border);stroke-width:1.6px;stroke-dasharray:none"/><rect x="768.0" y="891.5" width="260.0" height="39" rx="6.0" ry="6.0" style="fill:var(--diagram-paper);stroke:none"/><text x="898.0" y="907.5" class="diagram-stereotype" text-anchor="middle">&#171;part&#187;</text><text x="898.0" y="921.5" class="diagram-title" text-anchor="middle">distribution</text><text x="898.0" y="933.5" class="diagram-typed-by" text-anchor="middle">: PowerDistribution</text><rect class="diagram-port" x="756.0" y="954.5" width="8" height="8" data-port-id="SurveillanceDrone.SurveillanceQuadrotorDrone.power.distribution.mainPower"/><text class="diagram-port-label" x="768.0" y="962.5" text-anchor="start">mainPower</text><rect class="diagram-port" x="1032.0" y="977.2" width="8" height="8" data-port-id="SurveillanceDrone.SurveillanceQuadrotorDrone.power.distribution.regulated5V"/><text class="diagram-port-label" x="1028.0" y="985.2" text-anchor="end">regulated5V</text><rect class="diagram-port" x="1032.0" y="931.8" width="8" height="8" data-port-id="SurveillanceDrone.SurveillanceQuadrotorDrone.power.distribution.regulated12V"/><text class="diagram-port-label" x="1028.0" y="939.8" text-anchor="end">regulated12V</text></g><g class="diagram-node part" data-element-id="SurveillanceDrone.SurveillanceQuadrotorDrone.propulsion" data-element-name="propulsion" data-qualified-name="SurveillanceDrone.SurveillanceQuadrotorDrone.propulsion"><rect class="node-background" x="2852.0" y="1206.8" width="636.0" height="1172.0" rx="8.0" ry="8.0" style="fill:var(--diagram-paper);stroke:var(--diagram-border);stroke-width:1.6px;stroke-dasharray:none"/><rect x="2852.0" y="1207.8" width="636.0" height="39" rx="6.0" ry="6.0" style="fill:var(--diagram-paper);stroke:none"/><text x="3170.0" y="1223.8" class="diagram-stereotype" text-anchor="middle">&#171;part&#187;</text><text x="3170.0" y="1237.8" class="diagram-title" text-anchor="middle">propulsion</text><text x="3170.0" y="1249.8" class="diagram-typed-by" text-anchor="middle">: Propulsion</text></g><g class="diagram-node part" data-element-id="SurveillanceDrone.SurveillanceQuadrotorDrone.propulsion.propulsionUnit1" data-element-name="propulsionUnit1" data-qualified-name="SurveillanceDrone.SurveillanceQuadrotorDrone.propulsion.propulsionUnit1"><rect class="node-background" x="3088.0" y="1346.8" width="260.0" height="124.0" rx="8.0" ry="8.0" style="fill:var(--diagram-paper);stroke:var(--diagram-border);stroke-width:1.6px;stroke-dasharray:none"/><rect x="3088.0" y="1347.8" width="260.0" height="39" rx="6.0" ry="6.0" style="fill:var(--diagram-paper);stroke:none"/><text x="3218.0" y="1363.8" class="diagram-stereotype" text-anchor="middle">&#171;part&#187;</text><text x="3218.0" y="1377.8" class="diagram-title" text-anchor="middle">propulsionUnit1</text><text x="3218.0" y="1389.8" class="diagram-typed-by" text-anchor="middle">: PropulsionUnit</text><rect class="diagram-port" x="3352.0" y="1404.8" width="8" height="8" data-port-id="SurveillanceDrone.SurveillanceQuadrotorDrone.propulsion.propulsionUnit1.cmd"/><text class="diagram-port-label" x="3348.0" y="1412.8" text-anchor="end">cmd</text><rect class="diagram-port" x="3076.0" y="1404.8" width="8" height="8" data-port-id="SurveillanceDrone.SurveillanceQuadrotorDrone.propulsion.propulsionUnit1.pwr"/><text class="diagram-port-label" x="3088.0" y="1412.8" text-anchor="start">pwr</text></g><g class="diagram-node part" data-element-id="SurveillanceDrone.SurveillanceQuadrotorDrone.propulsion.propulsionUnit2" data-element-name="propulsionUnit2" data-qualified-name="SurveillanceDrone.SurveillanceQuadrotorDrone.propulsion.propulsionUnit2"><rect class="node-background" x="3088.0" y="1602.8" width="260.0" height="124.0" rx="8.0" ry="8.0" style="fill:var(--diagram-paper);stroke:var(--diagram-border);stroke-width:1.6px;stroke-dasharray:none"/><rect x="3088.0" y="1603.8" width="260.0" height="39" rx="6.0" ry="6.0" style="fill:var(--diagram-paper);stroke:none"/><text x="3218.0" y="1619.8" class="diagram-stereotype" text-anchor="middle">&#171;part&#187;</text><text x="3218.0" y="1633.8" class="diagram-title" text-anchor="middle">propulsionUnit2</text><text x="3218.0" y="1645.8" class="diagram-typed-by" text-anchor="middle">: PropulsionUnit</text><rect class="diagram-port" x="3352.0" y="1660.8" width="8" height="8" data-port-id="SurveillanceDrone.SurveillanceQuadrotorDrone.propulsion.propulsionUnit2.cmd"/><text class="diagram-port-label" x="3348.0" y="1668.8" text-anchor="end">cmd</text><rect class="diagram-port" x="3076.0" y="1660.8" width="8" height="8" data-port-id="SurveillanceDrone.SurveillanceQuadrotorDrone.propulsion.propulsionUnit2.pwr"/><text class="diagram-port-label" x="3088.0" y="1668.8" text-anchor="start">pwr</text></g><g class="diagram-node part" data-element-id="SurveillanceDrone.SurveillanceQuadrotorDrone.propulsion.propulsionUnit3" data-element-name="propulsionUnit3" data-qualified-name="SurveillanceDrone.SurveillanceQuadrotorDrone.propulsion.propulsionUnit3"><rect class="node-background" x="3088.0" y="1858.8" width="260.0" height="124.0" rx="8.0" ry="8.0" style="fill:var(--diagram-paper);stroke:var(--diagram-border);stroke-width:1.6px;stroke-dasharray:none"/><rect x="3088.0" y="1859.8" width="260.0" height="39" rx="6.0" ry="6.0" style="fill:var(--diagram-paper);stroke:none"/><text x="3218.0" y="1875.8" class="diagram-stereotype" text-anchor="middle">&#171;part&#187;</text><text x="3218.0" y="1889.8" class="diagram-title" text-anchor="middle">propulsionUnit3</text><text x="3218.0" y="1901.8" class="diagram-typed-by" text-anchor="middle">: PropulsionUnit</text><rect class="diagram-port" x="3352.0" y="1916.8" width="8" height="8" data-port-id="SurveillanceDrone.SurveillanceQuadrotorDrone.propulsion.propulsionUnit3.cmd"/><text class="diagram-port-label" x="3348.0" y="1924.8" text-anchor="end">cmd</text><rect class="diagram-port" x="3076.0" y="1916.8" width="8" height="8" data-port-id="SurveillanceDrone.SurveillanceQuadrotorDrone.propulsion.propulsionUnit3.pwr"/><text class="diagram-port-label" x="3088.0" y="1924.8" text-anchor="start">pwr</text></g><g class="diagram-node part" data-element-id="SurveillanceDrone.SurveillanceQuadrotorDrone.propulsion.propulsionUnit4" data-element-name="propulsionUnit4" data-qualified-name="SurveillanceDrone.SurveillanceQuadrotorDrone.propulsion.propulsionUnit4"><rect class="node-background" x="3088.0" y="2114.8" width="260.0" height="124.0" rx="8.0" ry="8.0" style="fill:var(--diagram-paper);stroke:var(--diagram-border);stroke-width:1.6px;stroke-dasharray:none"/><rect x="3088.0" y="2115.8" width="260.0" height="39" rx="6.0" ry="6.0" style="fill:var(--diagram-paper);stroke:none"/><text x="3218.0" y="2131.8" class="diagram-stereotype" text-anchor="middle">&#171;part&#187;</text><text x="3218.0" y="2145.8" class="diagram-title" text-anchor="middle">propulsionUnit4</text><text x="3218.0" y="2157.8" class="diagram-typed-by" text-anchor="middle">: PropulsionUnit</text><rect class="diagram-port" x="3352.0" y="2172.8" width="8" height="8" data-port-id="SurveillanceDrone.SurveillanceQuadrotorDrone.propulsion.propulsionUnit4.cmd"/><text class="diagram-port-label" x="3348.0" y="2180.8" text-anchor="end">cmd</text><rect class="diagram-port" x="3076.0" y="2172.8" width="8" height="8" data-port-id="SurveillanceDrone.SurveillanceQuadrotorDrone.propulsion.propulsionUnit4.pwr"/><text class="diagram-port-label" x="3088.0" y="2180.8" text-anchor="start">pwr</text></g><path class="diagram-edge edge-connection" data-element-id="ibd-edge-9" d="M 3980.0 667.7 L 4056.0 667.7 L 4056.0 525.7 L 4060.0 525.7 L 4060.0 483.4 L 4076.0 483.4" style="stroke:var(--diagram-edge);stroke-width:1.4px;stroke-dasharray:none" marker-start="none" marker-end="none"/><path class="diagram-edge edge-connection" data-element-id="ibd-edge-10" d="M 2556.0 1105.8 L 2572.0 1105.8 L 2572.0 1159.2 L 2658.8 1159.2 L 2658.8 1105.8 L 2856.0 1101.8 L 2856.0 1105.8 L 2860.0 1105.8 L 3004.0 807.6 L 3004.0 463.7 L 3938.0 463.7 L 3938.0 504.6 L 4060.0 504.6 L 4060.0 525.7 L 4076.0 525.7" style="stroke:var(--diagram-edge);stroke-width:1.4px;stroke-dasharray:none" marker-start="none" marker-end="none"/><path class="diagram-edge edge-connection" data-element-id="ibd-edge-7" d="M 2288.0 1025.6 L 2272.0 1025.6 L 2272.0 1159.2 L 2688.0 1159.2 L 2688.0 1025.6 L 2856.0 1021.6 L 2856.0 1025.6 L 2968.0 1025.6 L 2968.0 789.3 L 2988.0 789.3" style="stroke:var(--diagram-edge);stroke-width:1.4px;stroke-dasharray:none" marker-start="none" marker-end="none"/><path class="diagram-edge edge-connection" data-element-id="ibd-edge-3" d="M 2556.0 1048.5 L 2572.0 1048.5 L 2572.0 1159.2 L 2658.8 1159.2 L 2658.8 1048.5 L 2856.0 1044.5 L 2856.0 1048.5 L 2968.0 1048.5 L 2968.0 1932.8 L 2996.0 1932.8 L 2996.0 1928.8 L 2988.0 1928.8 L 3204.0 1932.8 L 3204.0 1606.8 L 3508.0 1606.8 L 3508.0 1548.8 L 3492.0 1548.8" style="stroke:var(--diagram-edge);stroke-width:1.4px;stroke-dasharray:none" marker-start="none" marker-end="none"/><path class="diagram-edge edge-connection" data-element-id="ibd-edge-4" d="M 2556.0 1048.5 L 2572.0 1048.5 L 2572.0 1159.2 L 2736.0 1159.2 L 2736.0 1048.5 L 2856.0 1044.5 L 2856.0 1048.5 L 2968.0 1048.5 L 2968.0 1932.8 L 2996.0 1932.8 L 2996.0 1928.8 L 2988.0 1928.8 L 3204.0 1932.8 L 3204.0 1862.8 L 3508.0 1862.8 L 3508.0 1804.8 L 3492.0 1804.8" style="stroke:var(--diagram-edge);stroke-width:1.4px;stroke-dasharray:none" marker-start="none" marker-end="none"/><path class="diagram-edge edge-connection" data-element-id="ibd-edge-5" d="M 2556.0 1048.5 L 2572.0 1048.5 L 2572.0 1159.2 L 2730.8 1159.2 L 2730.8 1048.5 L 2856.0 1044.5 L 2856.0 1048.5 L 2954.0 1048.5 L 2954.0 1932.8 L 2996.0 1932.8 L 2996.0 1928.8 L 2988.0 1928.8 L 3204.0 1932.8 L 3204.0 2118.8 L 3508.0 2118.8 L 3508.0 2060.8 L 3492.0 2060.8" style="stroke:var(--diagram-edge);stroke-width:1.4px;stroke-dasharray:none" marker-start="none" marker-end="none"/><path class="diagram-edge edge-connection" data-element-id="ibd-edge-6" d="M 2556.0 1048.5 L 2572.0 1048.5 L 2572.0 1159.2 L 2682.8 1159.2 L 2682.8 1048.5 L 2856.0 1044.5 L 2856.0 1048.5 L 2926.0 1048.5 L 2926.0 1932.8 L 2996.0 1932.8 L 2996.0 1928.8 L 2988.0 1928.8 L 3204.0 1932.8 L 3204.0 2374.8 L 3508.0 2374.8 L 3508.0 2316.8 L 3492.0 2316.8" style="stroke:var(--diagram-edge);stroke-width:1.4px;stroke-dasharray:none" marker-start="none" marker-end="none"/><path class="diagram-edge edge-connection" data-element-id="ibd-edge-8" d="M 3256.0 775.7 L 3512.0 775.7 L 3512.0 667.7 L 3696.0 667.7 L 3696.0 701.7 L 3712.0 701.7" style="stroke:var(--diagram-edge);stroke-width:1.4px;stroke-dasharray:none" marker-start="none" marker-end="none"/><path class="diagram-edge edge-connection" data-element-id="ibd-edge-11" d="M 964.0 1629.0 L 1004.0 1629.0 L 1004.0 1641.0 L 1044.0 1641.0" style="stroke:var(--diagram-edge);stroke-width:1.4px;stroke-dasharray:none" marker-start="none" marker-end="none"/><path class="diagram-edge edge-connection" data-element-id="ibd-edge-14" d="M 1172.0 1121.2 L 1188.0 1121.2 L 1188.0 1162.5 L 1310.0 1162.5 L 1310.0 1075.8 L 1556.0 1071.8 L 1556.0 1075.8 L 1560.0 1075.8 L 1816.0 1004.1 L 1816.0 645.7 L 3366.0 645.7 L 3366.0 701.7 L 3696.0 701.7 L 3696.0 633.7 L 3712.0 633.7" style="stroke:var(--diagram-edge);stroke-width:1.4px;stroke-dasharray:none" marker-start="none" marker-end="none"/><path class="diagram-edge edge-connection" data-element-id="ibd-edge-15" d="M 1172.0 1121.2 L 1188.0 1121.2 L 1188.0 1162.5 L 1436.0 1162.5 L 1436.0 1075.8 L 1556.0 1071.8 L 1556.0 1075.8 L 1560.0 1075.8 L 1816.0 854.1 L 1816.0 537.7 L 3910.0 537.7 L 3910.0 546.9 L 4060.0 546.9 L 4060.0 441.1 L 4076.0 441.1" style="stroke:var(--diagram-edge);stroke-width:1.4px;stroke-dasharray:none" marker-start="none" marker-end="none"/><path class="diagram-edge edge-connection" data-element-id="ibd-edge-12" d="M 1172.0 1121.2 L 1188.0 1121.2 L 1188.0 1162.5 L 1436.0 1162.5 L 1436.0 1075.8 L 1556.0 1071.8 L 1556.0 1075.8 L 1780.0 1075.8 L 1780.0 1128.8 L 1808.0 1128.8 L 1808.0 1124.8 L 1800.0 1124.8 L 2095.2 1128.8 L 2095.2 1159.2 L 2272.0 1159.2 L 2272.0 1060.0 L 2288.0 1060.0" style="stroke:var(--diagram-edge);stroke-width:1.4px;stroke-dasharray:none" marker-start="none" marker-end="none"/><path class="diagram-edge edge-connection" data-element-id="ibd-edge-13" d="M 1172.0 1121.2 L 1188.0 1121.2 L 1188.0 1162.5 L 1430.0 1162.5 L 1430.0 1075.8 L 1556.0 1071.8 L 1556.0 1075.8 L 1560.0 1075.8 L 1816.0 1109.5 L 1816.0 760.5 L 2438.0 760.5 L 2438.0 816.5 L 2972.0 816.5 L 2972.0 734.9 L 2988.0 734.9" style="stroke:var(--diagram-edge);stroke-width:1.4px;stroke-dasharray:none" marker-start="none" marker-end="none"/><path class="diagram-edge edge-connection" data-element-id="ibd-edge-16" d="M 1172.0 1121.2 L 1188.0 1121.2 L 1188.0 1162.5 L 1406.0 1162.5 L 1406.0 1075.8 L 1556.0 1071.8 L 1556.0 1075.8 L 1560.0 1075.8 L 1816.0 1802.5 L 1816.0 2194.5 L 2410.0 2194.5 L 2410.0 1932.8 L 2996.0 1932.8 L 2996.0 1928.8 L 2988.0 1928.8 L 3164.0 1932.8 L 3164.0 1606.8 L 3208.0 1606.8 L 3208.0 1548.8 L 3224.0 1548.8" style="stroke:var(--diagram-edge);stroke-width:1.4px;stroke-dasharray:none" marker-start="none" marker-end="none"/><path class="diagram-edge edge-connection" data-element-id="ibd-edge-17" d="M 1172.0 1121.2 L 1188.0 1121.2 L 1188.0 1162.5 L 1382.0 1162.5 L 1382.0 1075.8 L 1556.0 1071.8 L 1556.0 1075.8 L 1560.0 1075.8 L 1816.0 1791.5 L 1816.0 2268.5 L 2438.0 2268.5 L 2438.0 1932.8 L 2996.0 1932.8 L 2996.0 1928.8 L 2988.0 1928.8 L 3164.0 1932.8 L 3164.0 1862.8 L 3208.0 1862.8 L 3208.0 1804.8 L 3224.0 1804.8" style="stroke:var(--diagram-edge);stroke-width:1.4px;stroke-dasharray:none" marker-start="none" marker-end="none"/><path class="diagram-edge edge-connection" data-element-id="ibd-edge-18" d="M 1172.0 1121.2 L 1188.0 1121.2 L 1188.0 1162.5 L 1358.0 1162.5 L 1358.0 1075.8 L 1556.0 1071.8 L 1556.0 1075.8 L 1560.0 1075.8 L 1816.0 1804.5 L 1816.0 2342.5 L 2466.0 2342.5 L 2466.0 1932.8 L 2996.0 1932.8 L 2996.0 1928.8 L 2988.0 1928.8 L 3164.0 1932.8 L 3164.0 2118.8 L 3208.0 2118.8 L 3208.0 2060.8 L 3224.0 2060.8" style="stroke:var(--diagram-edge);stroke-width:1.4px;stroke-dasharray:none" marker-start="none" marker-end="none"/><path class="diagram-edge edge-connection" data-element-id="ibd-edge-19" d="M 1172.0 1121.2 L 1188.0 1121.2 L 1188.0 1162.5 L 1184.0 1162.5 L 1184.0 1249.8 L 1436.0 1249.8 L 1436.0 1075.8 L 1556.0 1071.8 L 1556.0 1075.8 L 1560.0 1075.8 L 1816.0 1817.5 L 1816.0 2416.5 L 2494.0 2416.5 L 2494.0 1932.8 L 2996.0 1932.8 L 2996.0 1928.8 L 2988.0 1928.8 L 3164.0 1932.8 L 3164.0 2374.8 L 3208.0 2374.8 L 3208.0 2316.8 L 3224.0 2316.8" style="stroke:var(--diagram-edge);stroke-width:1.4px;stroke-dasharray:none" marker-start="none" marker-end="none"/></g></svg>