<svg xmlns="http://www.w3.org/2000/svg" width="4036" height="3072" viewBox="0 0 4036 3072" class="diagram-root interconnection-view"><style>.diagram-root{--diagram-paper:#1e1e1e;--diagram-ink:#d4d4d4;--diagram-muted:#a0a0a0;--diagram-faint:#6b6b6b;}</style><style>:root{color-scheme:light dark}.diagram-root{--diagram-paper:var(--vscode-editor-background,#1e1e1e);--diagram-ink:var(--vscode-editor-foreground,#d4d4d4);--diagram-muted:#a0a0a0;--diagram-faint:#6b6b6b;--diagram-border:var(--diagram-ink);--diagram-edge:var(--diagram-ink);--diagram-edge-label:var(--diagram-edge);--diagram-port-stroke:var(--diagram-edge);--diagram-port-label:var(--diagram-ink);}.interconnection-view{--diagram-border:#8f99a3;--diagram-edge:#6fd3ff;--diagram-edge-label:#8eddff;--diagram-port-stroke:var(--diagram-edge);--diagram-port-label:#dbefff;}.diagram-viewport{font-family:var(--vscode-editor-font-family, sans-serif)}.diagram-edge{fill:none;stroke:var(--diagram-edge);opacity:1}.diagram-edge-label{font-size:10px;font-weight:400;fill:var(--diagram-edge-label);paint-order:stroke;stroke:var(--diagram-paper);stroke-width:3px;stroke-linejoin:round}.diagram-port{fill:var(--diagram-paper);stroke:var(--diagram-port-stroke);stroke-width:1.2px}.diagram-port-label{font-size:10px;fill:var(--diagram-port-label)}.diagram-stereotype{font-size:9px;fill:var(--diagram-muted)}.diagram-title{fill:var(--diagram-ink);font-size:11px;font-weight:700}.diagram-typed-by{font-size:10px;font-style:italic;fill:var(--diagram-ink)}.diagram-detail{font-size:10px;fill:var(--diagram-ink)}.diagram-compartment-title{font-size:9px;font-weight:700;fill:var(--diagram-muted)}.diagram-divider{stroke:var(--diagram-faint);stroke-width:1px;opacity:.8}.node-background{fill:var(--diagram-paper);stroke:var(--diagram-border)}@media print {.diagram-root{--diagram-paper:#ffffff;--diagram-ink:#000000;--diagram-muted:#333333;--diagram-faint:#b5b5b5;--diagram-border:#5f5f5f;--diagram-edge:#000000;--diagram-edge-label:#000000;--diagram-port-stroke:#000000;--diagram-port-label:#000000;}}</style><defs><marker id="edge-arrow-solid" viewBox="0 -5 10 10" refX="9" refY="0" markerWidth="7" markerHeight="7" orient="auto"><path d="M0,-4L10,0L0,4Z" fill="context-stroke"/></marker><marker id="edge-arrow-open" viewBox="0 -5 10 10" refX="9" refY="0" markerWidth="8" markerHeight="8" orient="auto"><path d="M0,-4L10,0L0,4" fill="none" stroke="context-stroke" stroke-width="1.3"/></marker><marker id="edge-triangle-hollow" viewBox="0 -6 12 12" refX="11" refY="0" markerWidth="8" markerHeight="8" orient="auto"><path d="M0,0L10,-4L10,4Z" fill="var(--diagram-paper,#ffffff)" stroke="context-stroke" stroke-width="1.2"/></marker><marker id="edge-diamond-solid" viewBox="0 -6 12 12" refX="2" refY="0" markerWidth="9" markerHeight="9" orient="auto"><path d="M2,0L6,-4L10,0L6,4Z" fill="context-stroke" stroke="context-stroke" stroke-width="1"/></marker><marker id="edge-dot" viewBox="0 0 10 10" refX="5" refY="5" markerWidth="6" markerHeight="6"><circle cx="5" cy="5" r="2.4" fill="context-stroke"/></marker></defs><g class="diagram-viewport"><g class="diagram-node part-def" data-element-id="SurveillanceDrone.SurveillanceQuadrotorDrone" data-element-name="SurveillanceQuadrotorDrone" data-qualified-name="SurveillanceDrone.SurveillanceQuadrotorDrone"><rect class="node-background" x="140.0" y="140.0" width="3756.0" height="2747.0" rx="4.0" ry="4.0" style="fill:var(--diagram-paper);stroke:var(--diagram-border);stroke-width:1.6px;stroke-dasharray:none"/><rect class="node-background" x="140.0" y="140.0" width="3756.0" height="40.0" rx="4.0" ry="4.0" style="fill:var(--diagram-paper);stroke:var(--diagram-border);stroke-width:1.6px;stroke-dasharray:none"/><line class="diagram-divider" x1="146.0" y1="180.0" x2="3890.0" y2="180.0" style="stroke:var(--diagram-faint)"/><text x="2018.0" y="157.0" class="diagram-stereotype" text-anchor="middle">&#171;part def&#187;</text><text x="2018.0" y="173.0" class="diagram-title" text-anchor="middle">SurveillanceQuadrotorDrone</text></g><g class="diagram-node part" data-element-id="SurveillanceDrone.SurveillanceQuadrotorDrone.airframe" data-element-name="airframe" data-qualified-name="SurveillanceDrone.SurveillanceQuadrotorDrone.airframe"><rect class="node-background" x="280.0" y="2647.0" width="260.0" height="100.0" rx="8.0" ry="8.0" style="fill:var(--diagram-paper);stroke:var(--diagram-border);stroke-width:1.6px;stroke-dasharray:none"/><rect x="280.0" y="2648.0" width="260.0" height="39" rx="6.0" ry="6.0" style="fill:var(--diagram-paper);stroke:none"/><text x="410.0" y="2664.0" class="diagram-stereotype" text-anchor="middle">&#171;part&#187;</text><text x="410.0" y="2678.0" class="diagram-title" text-anchor="middle">airframe</text><text x="410.0" y="2690.0" class="diagram-typed-by" text-anchor="middle">: Airframe</text></g><g class="diagram-node part" data-element-id="SurveillanceDrone.SurveillanceQuadrotorDrone.cameraPayload" data-element-name="cameraPayload" data-qualified-name="SurveillanceDrone.SurveillanceQuadrotorDrone.cameraPayload"><rect class="node-background" x="3148.0" y="493.7" width="260.0" height="136.0" rx="8.0" ry="8.0" style="fill:var(--diagram-paper);stroke:var(--diagram-border);stroke-width:1.6px;stroke-dasharray:none"/><rect x="3148.0" y="494.7" width="260.0" height="39" rx="6.0" ry="6.0" style="fill:var(--diagram-paper);stroke:none"/><text x="3278.0" y="510.7" class="diagram-stereotype" text-anchor="middle">&#171;part&#187;</text><text x="3278.0" y="524.7" class="diagram-title" text-anchor="middle">cameraPayload</text><text x="3278.0" y="536.7" class="diagram-typed-by" text-anchor="middle">: CameraPayload</text><rect class="diagram-port" x="3408.0" y="557.7" width="8" height="8" data-port-id="SurveillanceDrone.SurveillanceQuadrotorDrone.cameraPayload.videoOut"/><text class="diagram-port-label" x="3404.0" y="565.7" text-anchor="end">videoOut</text><rect class="diagram-port" x="3140.0" y="591.7" width="8" height="8" data-port-id="SurveillanceDrone.SurveillanceQuadrotorDrone.cameraPayload.control"/><text class="diagram-port-label" x="3152.0" y="599.7" text-anchor="start">control</text><rect class="diagram-port" x="3140.0" y="523.7" width="8" height="8" data-port-id="SurveillanceDrone.SurveillanceQuadrotorDrone.cameraPayload.pwr"/><text class="diagram-port-label" x="3152.0" y="531.7" text-anchor="start">pwr</text></g><g class="diagram-node part" data-element-id="SurveillanceDrone.SurveillanceQuadrotorDrone.communication" data-element-name="communication" data-qualified-name="SurveillanceDrone.SurveillanceQuadrotorDrone.communication"><rect class="node-background" x="3496.0" y="280.0" width="260.0" height="148.0" rx="8.0" ry="8.0" style="fill:var(--diagram-paper);stroke:var(--diagram-border);stroke-width:1.6px;stroke-dasharray:none"/><rect x="3496.0" y="281.0" width="260.0" height="39" rx="6.0" ry="6.0" style="fill:var(--diagram-paper);stroke:none"/><text x="3626.0" y="297.0" class="diagram-stereotype" text-anchor="middle">&#171;part&#187;</text><text x="3626.0" y="311.0" class="diagram-title" text-anchor="middle">communication</text><text x="3626.0" y="323.0" class="diagram-typed-by" text-anchor="middle">: Communication</text><rect class="diagram-port" x="3488.0" y="402.9" width="8" height="8" data-port-id="SurveillanceDrone.SurveillanceQuadrotorDrone.communication.c2In"/><text class="diagram-port-label" x="3500.0" y="410.9" text-anchor="start">c2In</text><rect class="diagram-port" x="3488.0" y="339.4" width="8" height="8" data-port-id="SurveillanceDrone.SurveillanceQuadrotorDrone.communication.telemetryIn"/><text class="diagram-port-label" x="3500.0" y="347.4" text-anchor="start">telemetryIn</text><rect class="diagram-port" x="3488.0" y="297.1" width="8" height="8" data-port-id="SurveillanceDrone.SurveillanceQuadrotorDrone.communication.videoIn"/><text class="diagram-port-label" x="3500.0" y="305.1" text-anchor="start">videoIn</text><rect class="diagram-port" x="3488.0" y="381.7" width="8" height="8" data-port-id="SurveillanceDrone.SurveillanceQuadrotorDrone.communication.pwr"/><text class="diagram-port-label" x="3500.0" y="389.7" text-anchor="start">pwr</text></g><g class="diagram-node part" data-element-id="SurveillanceDrone.SurveillanceQuadrotorDrone.flightControl" data-element-name="flightControl" data-qualified-name="SurveillanceDrone.SurveillanceQuadrotorDrone.flightControl"><rect class="node-background" x="1352.0" y="909.0" width="984.0" height="1316.0" rx="8.0" ry="8.0" style="fill:var(--diagram-paper);stroke:var(--diagram-border);stroke-width:1.6px;stroke-dasharray:none"/><rect x="1352.0" y="910.0" width="984.0" height="39" rx="6.0" ry="6.0" style="fill:var(--diagram-paper);stroke:none"/><text x="1844.0" y="926.0" class="diagram-stereotype" text-anchor="middle">&#171;part&#187;</text><text x="1844.0" y="940.0" class="diagram-title" text-anchor="middle">flightControl</text><text x="1844.0" y="952.0" class="diagram-typed-by" text-anchor="middle">: FlightControlAndSensing</text></g><g class="diagram-node part" data-element-id="SurveillanceDrone.SurveillanceQuadrotorDrone.flightControl.barometer" data-element-name="barometer" data-qualified-name="SurveillanceDrone.SurveillanceQuadrotorDrone.flightControl.barometer"><rect class="node-background" x="1492.0" y="1449.0" width="260.0" height="124.0" rx="8.0" ry="8.0" style="fill:var(--diagram-paper);stroke:var(--diagram-border);stroke-width:1.6px;stroke-dasharray:none"/><rect x="1492.0" y="1450.0" width="260.0" height="39" rx="6.0" ry="6.0" style="fill:var(--diagram-paper);stroke:none"/><text x="1622.0" y="1466.0" class="diagram-stereotype" text-anchor="middle">&#171;part&#187;</text><text x="1622.0" y="1480.0" class="diagram-title" text-anchor="middle">barometer</text><text x="1622.0" y="1492.0" class="diagram-typed-by" text-anchor="middle">: Barometer</text><rect class="diagram-port" x="1752.0" y="1507.0" width="8" height="8" data-port-id="SurveillanceDrone.SurveillanceQuadrotorDrone.flightControl.barometer.altitudeOut"/><text class="diagram-port-label" x="1748.0" y="1515.0" text-anchor="end">altitudeOut</text><rect class="diagram-port" x="1484.0" y="1507.0" width="8" height="8" data-port-id="SurveillanceDrone.SurveillanceQuadrotorDrone.flightControl.barometer.pwr"/><text class="diagram-port-label" x="1496.0" y="1515.0" text-anchor="start">pwr</text></g><g class="diagram-node part" data-element-id="SurveillanceDrone.SurveillanceQuadrotorDrone.flightControl.flightController" data-element-name="flightController" data-qualified-name="SurveillanceDrone.SurveillanceQuadrotorDrone.flightControl.flightController"><rect class="node-background" x="1840.0" y="1100.6" width="260.0" height="172.0" rx="8.0" ry="8.0" style="fill:var(--diagram-paper);stroke:var(--diagram-border);stroke-width:1.6px;stroke-dasharray:none"/><rect x="1840.0" y="1101.6" width="260.0" height="39" rx="6.0" ry="6.0" style="fill:var(--diagram-paper);stroke:none"/><text x="1970.0" y="1117.6" class="diagram-stereotype" text-anchor="middle">&#171;part&#187;</text><text x="1970.0" y="1131.6" class="diagram-title" text-anchor="middle">flightController</text><text x="1970.0" y="1143.6" class="diagram-typed-by" text-anchor="middle">: FlightController</text><rect class="diagram-port" x="2100.0" y="1154.0" width="8" height="8" data-port-id="SurveillanceDrone.SurveillanceQuadrotorDrone.flightControl.flightController.motorCmd"/><text class="diagram-port-label" x="2096.0" y="1162.0" text-anchor="end">motorCmd</text><rect class="diagram-port" x="1832.0" y="1131.0" width="8" height="8" data-port-id="SurveillanceDrone.SurveillanceQuadrotorDrone.flightControl.flightController.gimbalCmd"/><text class="diagram-port-label" x="1844.0" y="1139.0" text-anchor="start">gimbalCmd</text><rect class="diagram-port" x="2100.0" y="1211.3" width="8" height="8" data-port-id="SurveillanceDrone.SurveillanceQuadrotorDrone.flightControl.flightController.telemetryOut"/><text class="diagram-port-label" x="2096.0" y="1219.3" text-anchor="end">telemetryOut</text><rect class="diagram-port" x="1832.0" y="1234.2" width="8" height="8" data-port-id="SurveillanceDrone.SurveillanceQuadrotorDrone.flightControl.flightController.rcIn"/><text class="diagram-port-label" x="1844.0" y="1242.2" text-anchor="start">rcIn</text><rect class="diagram-port" x="1832.0" y="1199.8" width="8" height="8" data-port-id="SurveillanceDrone.SurveillanceQuadrotorDrone.flightControl.flightController.sensorIn"/><text class="diagram-port-label" x="1844.0" y="1207.8" text-anchor="start">sensorIn</text><rect class="diagram-port" x="1832.0" y="1165.4" width="8" height="8" data-port-id="SurveillanceDrone.SurveillanceQuadrotorDrone.flightControl.flightController.pwr"/><text class="diagram-port-label" x="1844.0" y="1173.4" text-anchor="start">pwr</text></g><g class="diagram-node part" data-element-id="SurveillanceDrone.SurveillanceQuadrotorDrone.flightControl.gnss" data-element-name="gnss" data-qualified-name="SurveillanceDrone.SurveillanceQuadrotorDrone.flightControl.gnss"><rect class="node-background" x="1492.0" y="1705.0" width="260.0" height="124.0" rx="8.0" ry="8.0" style="fill:var(--diagram-paper);stroke:var(--diagram-border);stroke-width:1.6px;stroke-dasharray:none"/><rect x="1492.0" y="1706.0" width="260.0" height="39" rx="6.0" ry="6.0" style="fill:var(--diagram-paper);stroke:none"/><text x="1622.0" y="1722.0" class="diagram-stereotype" text-anchor="middle">&#171;part&#187;</text><text x="1622.0" y="1736.0" class="diagram-title" text-anchor="middle">gnss</text><text x="1622.0" y="1748.0" class="diagram-typed-by" text-anchor="middle">: GNSSReceiver</text><rect class="diagram-port" x="1752.0" y="1763.0" width="8" height="8" data-port-id="SurveillanceDrone.SurveillanceQuadrotorDrone.flightControl.gnss.positionOut"/><text class="diagram-port-label" x="1748.0" y="1771.0" text-anchor="end">positionOut</text><rect class="diagram-port" x="1484.0" y="1763.0" width="8" height="8" data-port-id="SurveillanceDrone.SurveillanceQuadrotorDrone.flightControl.gnss.pwr"/><text class="diagram-port-label" x="1496.0" y="1771.0" text-anchor="start">pwr</text></g><g class="diagram-node part" data-element-id="SurveillanceDrone.SurveillanceQuadrotorDrone.flightControl.imu" data-element-name="imu" data-qualified-name="SurveillanceDrone.SurveillanceQuadrotorDrone.flightControl.imu"><rect class="node-background" x="1492.0" y="1961.0" width="260.0" height="124.0" rx="8.0" ry="8.0" style="fill:var(--diagram-paper);stroke:var(--diagram-border);stroke-width:1.6px;stroke-dasharray:none"/><rect x="1492.0" y="1962.0" width="260.0" height="39" rx="6.0" ry="6.0" style="fill:var(--diagram-paper);stroke:none"/><text x="1622.0" y="1978.0" class="diagram-stereotype" text-anchor="middle">&#171;part&#187;</text><text x="1622.0" y="1992.0" class="diagram-title" text-anchor="middle">imu</text><text x="1622.0" y="2004.0" class="diagram-typed-by" text-anchor="middle">: IMU</text><rect class="diagram-port" x="1752.0" y="2019.0" width="8" height="8" data-port-id="SurveillanceDrone.SurveillanceQuadrotorDrone.flightControl.imu.dataOut"/><text class="diagram-port-label" x="1748.0" y="2027.0" text-anchor="end">dataOut</text><rect class="diagram-port" x="1484.0" y="2019.0" width="8" height="8" data-port-id="SurveillanceDrone.SurveillanceQuadrotorDrone.flightControl.imu.pwr"/><text class="diagram-port-label" x="1496.0" y="2027.0" text-anchor="start">pwr</text></g><g class="diagram-node part" data-element-id="SurveillanceDrone.SurveillanceQuadrotorDrone.gimbal" data-element-name="gimbal" data-qualified-name="SurveillanceDrone.SurveillanceQuadrotorDrone.gimbal"><rect class="node-background" x="2424.0" y="459.7" width="260.0" height="136.0" rx="8.0" ry="8.0" style="fill:var(--diagram-paper);stroke:var(--diagram-border);stroke-width:1.6px;stroke-dasharray:none"/><rect x="2424.0" y="460.7" width="260.0" height="39" rx="6.0" ry="6.0" style="fill:var(--diagram-paper);stroke:none"/><text x="2554.0" y="476.7" class="diagram-stereotype" text-anchor="middle">&#171;part&#187;</text><text x="2554.0" y="490.7" class="diagram-title" text-anchor="middle">gimbal</text><text x="2554.0" y="502.7" class="diagram-typed-by" text-anchor="middle">: Gimbal</text><rect class="diagram-port" x="2416.0" y="537.3" width="8" height="8" data-port-id="SurveillanceDrone.SurveillanceQuadrotorDrone.gimbal.cmd"/><text class="diagram-port-label" x="2428.0" y="545.3" text-anchor="start">cmd</text><rect class="diagram-port" x="2684.0" y="523.7" width="8" height="8" data-port-id="SurveillanceDrone.SurveillanceQuadrotorDrone.gimbal.cameraCtrl"/><text class="diagram-port-label" x="2680.0" y="531.7" text-anchor="end">cameraCtrl</text><rect class="diagram-port" x="2416.0" y="482.9" width="8" height="8" data-port-id="SurveillanceDrone.SurveillanceQuadrotorDrone.gimbal.pwr"/><text class="diagram-port-label" x="2428.0" y="490.9" text-anchor="start">pwr</text></g><g class="diagram-node part" data-element-id="SurveillanceDrone.SurveillanceQuadrotorDrone.power" data-element-name="power" data-qualified-name="SurveillanceDrone.SurveillanceQuadrotorDrone.power"><rect class="node-background" x="280.0" y="909.0" width="984.0" height="696.0" rx="8.0" ry="8.0" style="fill:var(--diagram-paper);stroke:var(--diagram-border);stroke-width:1.6px;stroke-dasharray:none"/><rect x="280.0" y="910.0" width="984.0" height="39" rx="6.0" ry="6.0" style="fill:var(--diagram-paper);stroke:none"/><text x="772.0" y="926.0" class="diagram-stereotype" text-anchor="middle">&#171;part&#187;</text><text x="772.0" y="940.0" class="diagram-title" text-anchor="middle">power</text><text x="772.0" y="952.0" class="diagram-typed-by" text-anchor="middle">: Power</text></g><g class="diagram-node part" data-element-id="SurveillanceDrone.SurveillanceQuadrotorDrone.power.battery" data-element-name="battery" data-qualified-name="SurveillanceDrone.SurveillanceQuadrotorDrone.power.battery"><rect class="node-background" x="420.0" y="1186.4" width="260.0" height="112.0" rx="8.0" ry="8.0" style="fill:var(--diagram-paper);stroke:var(--diagram-border);stroke-width:1.6px;stroke-dasharray:none"/><rect x="420.0" y="1187.4" width="260.0" height="39" rx="6.0" ry="6.0" style="fill:var(--diagram-paper);stroke:none"/><text x="550.0" y="1203.4" class="diagram-stereotype" text-anchor="middle">&#171;part&#187;</text><text x="550.0" y="1217.4" class="diagram-title" text-anchor="middle">battery</text><text x="550.0" y="1229.4" class="diagram-typed-by" text-anchor="middle">: Battery</text><rect class="diagram-port" x="680.0" y="1238.4" width="8" height="8" data-port-id="SurveillanceDrone.SurveillanceQuadrotorDrone.power.battery.pwrOut"/><text class="diagram-port-label" x="676.0" y="1246.4" text-anchor="end">pwrOut</text></g><g class="diagram-node part" data-element-id="SurveillanceDrone.SurveillanceQuadrotorDrone.power.distribution" data-element-name="distribution" data-qualified-name="SurveillanceDrone.SurveillanceQuadrotorDrone.power.distribution"><rect class="node-background" x="768.0" y="1186.4" width="260.0" height="136.0" rx="8.0" ry="8.0" style="fill:var(--diagram-paper);stroke:var(--diagram-border);stroke-width:1.6px;stroke-dasharray:none"/><rect x="768.0" y="1187.4" width="260.0" height="39" rx="6.0" ry="6.0" style="fill:var(--diagram-paper);stroke:none"/><text x="898.0" y="1203.4" class="diagram-stereotype" text-anchor="middle">&#171;part&#187;</text><text x="898.0" y="1217.4" class="diagram-title" text-anchor="middle">distribution</text><text x="898.0" y="1229.4" class="diagram-typed-by" text-anchor="middle">: PowerDistribution</text><rect class="diagram-port" x="760.0" y="1250.4" width="8" height="8" data-port-id="SurveillanceDrone.SurveillanceQuadrotorDrone.power.distribution.mainPower"/><text class="diagram-port-label" x="772.0" y="1258.4" text-anchor="start">mainPower</text><rect class="diagram-port" x="1028.0" y="1273.0" width="8" height="8" data-port-id="SurveillanceDrone.SurveillanceQuadrotorDrone.power.distribution.regulated5V"/><text class="diagram-port-label" x="1024.0" y="1281.0" text-anchor="end">regulated5V</text><rect class="diagram-port" x="1028.0" y="1227.7" width="8" height="8" data-port-id="SurveillanceDrone.SurveillanceQuadrotorDrone.power.distribution.regulated12V"/><text class="diagram-port-label" x="1024.0" y="1235.7" text-anchor="end">regulated12V</text></g><g class="diagram-node part" data-element-id="SurveillanceDrone.SurveillanceQuadrotorDrone.propulsion" data-element-name="propulsion" data-qualified-name="SurveillanceDrone.SurveillanceQuadrotorDrone.propulsion"><rect class="node-background" x="2424.0" y="713.7" width="636.0" height="1172.0" rx="8.0" ry="8.0" style="fill:var(--diagram-paper);stroke:var(--diagram-border);stroke-width:1.6px;stroke-dasharray:none"/><rect x="2424.0" y="714.7" width="636.0" height="39" rx="6.0" ry="6.0" style="fill:var(--diagram-paper);stroke:none"/><text x="2742.0" y="730.7" class="diagram-stereotype" text-anchor="middle">&#171;part&#187;</text><text x="2742.0" y="744.7" class="diagram-title" text-anchor="middle">propulsion</text><text x="2742.0" y="756.7" class="diagram-typed-by" text-anchor="middle">: Propulsion</text></g><g class="diagram-node part" data-element-id="SurveillanceDrone.SurveillanceQuadrotorDrone.propulsion.propulsionUnit1" data-element-name="propulsionUnit1" data-qualified-name="SurveillanceDrone.SurveillanceQuadrotorDrone.propulsion.propulsionUnit1"><rect class="node-background" x="2660.0" y="853.7" width="260.0" height="124.0" rx="8.0" ry="8.0" style="fill:var(--diagram-paper);stroke:var(--diagram-border);stroke-width:1.6px;stroke-dasharray:none"/><rect x="2660.0" y="854.7" width="260.0" height="39" rx="6.0" ry="6.0" style="fill:var(--diagram-paper);stroke:none"/><text x="2790.0" y="870.7" class="diagram-stereotype" text-anchor="middle">&#171;part&#187;</text><text x="2790.0" y="884.7" class="diagram-title" text-anchor="middle">propulsionUnit1</text><text x="2790.0" y="896.7" class="diagram-typed-by" text-anchor="middle">: PropulsionUnit</text><rect class="diagram-port" x="2920.0" y="911.7" width="8" height="8" data-port-id="SurveillanceDrone.SurveillanceQuadrotorDrone.propulsion.propulsionUnit1.cmd"/><text class="diagram-port-label" x="2916.0" y="919.7" text-anchor="end">cmd</text><rect class="diagram-port" x="2652.0" y="911.7" width="8" height="8" data-port-id="SurveillanceDrone.SurveillanceQuadrotorDrone.propulsion.propulsionUnit1.pwr"/><text class="diagram-port-label" x="2664.0" y="919.7" text-anchor="start">pwr</text></g><g class="diagram-node part" data-element-id="SurveillanceDrone.SurveillanceQuadrotorDrone.propulsion.propulsionUnit2" data-element-name="propulsionUnit2" data-qualified-name="SurveillanceDrone.SurveillanceQuadrotorDrone.propulsion.propulsionUnit2"><rect class="node-background" x="2660.0" y="1109.7" width="260.0" height="124.0" rx="8.0" ry="8.0" style="fill:var(--diagram-paper);stroke:var(--diagram-border);stroke-width:1.6px;stroke-dasharray:none"/><rect x="2660.0" y="1110.7" width="260.0" height="39" rx="6.0" ry="6.0" style="fill:var(--diagram-paper);stroke:none"/><text x="2790.0" y="1126.7" class="diagram-stereotype" text-anchor="middle">&#171;part&#187;</text><text x="2790.0" y="1140.7" class="diagram-title" text-anchor="middle">propulsionUnit2</text><text x="2790.0" y="1152.7" class="diagram-typed-by" text-anchor="middle">: PropulsionUnit</text><rect class="diagram-port" x="2920.0" y="1167.7" width="8" height="8" data-port-id="SurveillanceDrone.SurveillanceQuadrotorDrone.propulsion.propulsionUnit2.cmd"/><text class="diagram-port-label" x="2916.0" y="1175.7" text-anchor="end">cmd</text><rect class="diagram-port" x="2652.0" y="1167.7" width="8" height="8" data-port-id="SurveillanceDrone.SurveillanceQuadrotorDrone.propulsion.propulsionUnit2.pwr"/><text class="diagram-port-label" x="2664.0" y="1175.7" text-anchor="start">pwr</text></g><g class="diagram-node part" data-element-id="SurveillanceDrone.SurveillanceQuadrotorDrone.propulsion.propulsionUnit3" data-element-name="propulsionUnit3" data-qualified-name="SurveillanceDrone.SurveillanceQuadrotorDrone.propulsion.propulsionUnit3"><rect class="node-background" x="2660.0" y="1365.7" width="260.0" height="124.0" rx="8.0" ry="8.0" style="fill:var(--diagram-paper);stroke:var(--diagram-border);stroke-width:1.6px;stroke-dasharray:none"/><rect x="2660.0" y="1366.7" width="260.0" height="39" rx="6.0" ry="6.0" style="fill:var(--diagram-paper);stroke:none"/><text x="2790.0" y="1382.7" class="diagram-stereotype" text-anchor="middle">&#171;part&#187;</text><text x="2790.0" y="1396.7" class="diagram-title" text-anchor="middle">propulsionUnit3</text><text x="2790.0" y="1408.7" class="diagram-typed-by" text-anchor="middle">: PropulsionUnit</text><rect class="diagram-port" x="2920.0" y="1423.7" width="8" height="8" data-port-id="SurveillanceDrone.SurveillanceQuadrotorDrone.propulsion.propulsionUnit3.cmd"/><text class="diagram-port-label" x="2916.0" y="1431.7" text-anchor="end">cmd</text><rect class="diagram-port" x="2652.0" y="1423.7" width="8" height="8" data-port-id="SurveillanceDrone.SurveillanceQuadrotorDrone.propulsion.propulsionUnit3.pwr"/><text class="diagram-port-label" x="2664.0" y="1431.7" text-anchor="start">pwr</text></g><g class="diagram-node part" data-element-id="SurveillanceDrone.SurveillanceQuadrotorDrone.propulsion.propulsionUnit4" data-element-name="propulsionUnit4" data-qualified-name="SurveillanceDrone.SurveillanceQuadrotorDrone.propulsion.propulsionUnit4"><rect class="node-background" x="2660.0" y="1621.7" width="260.0" height="124.0" rx="8.0" ry="8.0" style="fill:var(--diagram-paper);stroke:var(--diagram-border);stroke-width:1.6px;stroke-dasharray:none"/><rect x="2660.0" y="1622.7" width="260.0" height="39" rx="6.0" ry="6.0" style="fill:var(--diagram-paper);stroke:none"/><text x="2790.0" y="1638.7" class="diagram-stereotype" text-anchor="middle">&#171;part&#187;</text><text x="2790.0" y="1652.7" class="diagram-title" text-anchor="middle">propulsionUnit4</text><text x="2790.0" y="1664.7" class="diagram-typed-by" text-anchor="middle">: PropulsionUnit</text><rect class="diagram-port" x="2920.0" y="1679.7" width="8" height="8" data-port-id="SurveillanceDrone.SurveillanceQuadrotorDrone.propulsion.propulsionUnit4.cmd"/><text class="diagram-port-label" x="2916.0" y="1687.7" text-anchor="end">cmd</text><rect class="diagram-port" x="2652.0" y="1679.7" width="8" height="8" data-port-id="SurveillanceDrone.SurveillanceQuadrotorDrone.propulsion.propulsionUnit4.pwr"/><text class="diagram-port-label" x="2664.0" y="1687.7" text-anchor="start">pwr</text></g><path class="diagram-edge edge-connection" data-element-id="ibd-edge-9" d="M 2240.0 1355.3 L 2256.0 1355.3 L 2256.0 1408.6 L 2265.5 1408.6 L 2265.5 1404.2 L 2344.0 1404.2 L 2344.0 1355.3 L 2472.0 1351.3 L 2472.0 1355.3 L 2468.0 1355.3 L 2576.0 920.9 L 2576.0 463.7 L 3474.0 463.7 L 3474.0 525.7 L 3620.0 525.7 L 3620.0 483.4 L 3636.0 483.4" style="stroke:var(--diagram-edge);stroke-width:1.4px;stroke-dasharray:none" marker-start="none" marker-end="none"/><path class="diagram-edge edge-connection" data-element-id="ibd-edge-10" d="M 960.0 2151.4 L 1004.0 2151.4 L 1004.0 2163.4 L 1048.0 2163.4" style="stroke:var(--diagram-edge);stroke-width:1.4px;stroke-dasharray:none" marker-start="none" marker-end="none"/><path class="diagram-edge edge-connection" data-element-id="ibd-edge-7" d="M 1168.0 1417.0 L 1184.0 1417.0 L 1184.0 1458.4 L 1180.0 1458.4 L 1180.0 1307.0 L 1272.0 1307.0 L 1272.0 1417.0 L 1400.0 1413.0 L 1400.0 1417.0 L 1448.0 1417.0 L 1448.0 1309.4 L 1496.0 1309.4 L 1496.0 1305.4 L 1488.0 1305.4 L 1789.2 1309.4 L 1789.2 1408.6 L 1964.0 1408.6 L 1964.0 1309.4 L 1980.0 1309.4" style="stroke:var(--diagram-edge);stroke-width:1.4px;stroke-dasharray:none" marker-start="none" marker-end="none"/><path class="diagram-edge edge-connection" data-element-id="ibd-edge-3" d="M 1168.0 1417.0 L 1184.0 1417.0 L 1184.0 1458.4 L 1180.0 1458.4 L 1180.0 1333.0 L 1272.0 1333.0 L 1272.0 1417.0 L 1400.0 1413.0 L 1400.0 1417.0 L 1396.0 1417.0 L 1504.0 1011.2 L 1504.0 625.3 L 2040.0 625.3 L 2040.0 708.5 L 2548.0 708.5 L 2548.0 626.9 L 2564.0 626.9" style="stroke:var(--diagram-edge);stroke-width:1.4px;stroke-dasharray:none" marker-start="none" marker-end="none"/><path class="diagram-edge edge-connection" data-element-id="ibd-edge-4" d="M 1168.0 1417.0 L 1184.0 1417.0 L 1184.0 1458.4 L 1180.0 1458.4 L 1180.0 1359.0 L 1272.0 1359.0 L 1272.0 1417.0 L 1400.0 1413.0 L 1400.0 1417.0 L 1396.0 1417.0 L 1504.0 1094.4 L 1504.0 791.7 L 2938.0 791.7 L 2938.0 735.7 L 3272.0 735.7 L 3272.0 667.7 L 3288.0 667.7" style="stroke:var(--diagram-edge);stroke-width:1.4px;stroke-dasharray:none" marker-start="none" marker-end="none"/><path class="diagram-edge edge-connection" data-element-id="ibd-edge-5" d="M 1168.0 1417.0 L 1184.0 1417.0 L 1184.0 1458.4 L 1226.0 1458.4 L 1226.0 1417.0 L 1400.0 1413.0 L 1400.0 1417.0 L 1396.0 1417.0 L 1504.0 967.4 L 1504.0 537.7 L 3474.0 537.7 L 3474.0 504.6 L 3620.0 504.6 L 3620.0 525.7 L 3636.0 525.7" style="stroke:var(--diagram-edge);stroke-width:1.4px;stroke-dasharray:none" marker-start="none" marker-end="none"/><path class="diagram-edge edge-connection" data-element-id="ibd-edge-6" d="M 1168.0 1417.0 L 1184.0 1417.0 L 1184.0 1458.4 L 1226.0 1458.4 L 1226.0 1417.0 L 1400.0 1413.0 L 1400.0 1417.0 L 1396.0 1417.0 L 1504.0 1909.0 L 1504.0 1832.7 L 2572.0 1439.7 L 2568.0 1439.7 L 2568.0 1435.7 L 2560.0 1435.7 L 2742.0 1439.7 L 2742.0 1113.7 L 2784.0 1113.7 L 2784.0 1055.7 L 2800.0 1055.7" style="stroke:var(--diagram-edge);stroke-width:1.4px;stroke-dasharray:none" marker-start="none" marker-end="none"/><path class="diagram-edge edge-connection" data-element-id="ibd-edge-8" d="M 1168.0 1417.0 L 1184.0 1417.0 L 1184.0 1458.4 L 1226.0 1458.4 L 1226.0 1417.0 L 1400.0 1413.0 L 1400.0 1417.0 L 1396.0 1417.0 L 1504.0 1946.0 L 1504.0 1869.7 L 2572.0 1439.7 L 2568.0 1439.7 L 2568.0 1435.7 L 2560.0 1435.7 L 2742.0 1439.7 L 2742.0 1369.7 L 2784.0 1369.7 L 2784.0 1311.7 L 2800.0 1311.7" style="stroke:var(--diagram-edge);stroke-width:1.4px;stroke-dasharray:none" marker-start="none" marker-end="none"/><path class="diagram-edge edge-connection" data-element-id="ibd-edge-11" d="M 1168.0 1417.0 L 1184.0 1417.0 L 1184.0 1458.4 L 1226.0 1458.4 L 1226.0 1417.0 L 1400.0 1413.0 L 1400.0 1417.0 L 1396.0 1417.0 L 1504.0 1983.0 L 1504.0 1906.7 L 2572.0 1439.7 L 2568.0 1439.7 L 2568.0 1435.7 L 2560.0 1435.7 L 2742.0 1439.7 L 2742.0 1625.7 L 2784.0 1625.7 L 2784.0 1567.7 L 2800.0 1567.7" style="stroke:var(--diagram-edge);stroke-width:1.4px;stroke-dasharray:none" marker-start="none" marker-end="none"/><path class="diagram-edge edge-connection" data-element-id="ibd-edge-14" d="M 1168.0 1417.0 L 1184.0 1417.0 L 1184.0 1458.4 L 1180.0 1458.4 L 1180.0 1489.0 L 1272.0 1489.0 L 1272.0 1417.0 L 1400.0 1413.0 L 1400.0 1417.0 L 1396.0 1417.0 L 1504.0 2020.0 L 1504.0 1943.7 L 2572.0 1439.7 L 2568.0 1439.7 L 2568.0 1435.7 L 2560.0 1435.7 L 2742.0 1439.7 L 2742.0 1881.7 L 2784.0 1881.7 L 2784.0 1823.7 L 2800.0 1823.7" style="stroke:var(--diagram-edge);stroke-width:1.4px;stroke-dasharray:none" marker-start="none" marker-end="none"/><path class="diagram-edge edge-connection" data-element-id="ibd-edge-15" d="M 2240.0 1298.0 L 2256.0 1298.0 L 2256.0 1408.6 L 2304.8 1408.6 L 2304.8 1298.0 L 2472.0 1294.0 L 2472.0 1298.0 L 2520.0 1298.0 L 2520.0 1439.7 L 2568.0 1439.7 L 2568.0 1435.7 L 2560.0 1435.7 L 2756.0 1439.7 L 2756.0 1113.7 L 3076.0 1113.7 L 3076.0 1055.7 L 3060.0 1055.7" style="stroke:var(--diagram-edge);stroke-width:1.4px;stroke-dasharray:none" marker-start="none" marker-end="none"/><path class="diagram-edge edge-connection" data-element-id="ibd-edge-12" d="M 2240.0 1298.0 L 2256.0 1298.0 L 2256.0 1408.6 L 2304.8 1408.6 L 2304.8 1298.0 L 2472.0 1294.0 L 2472.0 1298.0 L 2520.0 1298.0 L 2520.0 1439.7 L 2568.0 1439.7 L 2568.0 1435.7 L 2560.0 1435.7 L 2756.0 1439.7 L 2756.0 1369.7 L 3076.0 1369.7 L 3076.0 1311.7 L 3060.0 1311.7" style="stroke:var(--diagram-edge);stroke-width:1.4px;stroke-dasharray:none" marker-start="none" marker-end="none"/><path class="diagram-edge edge-connection" data-element-id="ibd-edge-13" d="M 2240.0 1298.0 L 2256.0 1298.0 L 2256.0 1408.6 L 2304.8 1408.6 L 2304.8 1298.0 L 2472.0 1294.0 L 2472.0 1298.0 L 2520.0 1298.0 L 2520.0 1439.7 L 2568.0 1439.7 L 2568.0 1435.7 L 2560.0 1435.7 L 2756.0 1439.7 L 2756.0 1625.7 L 3076.0 1625.7 L 3076.0 1567.7 L 3060.0 1567.7" style="stroke:var(--diagram-edge);stroke-width:1.4px;stroke-dasharray:none" marker-start="none" marker-end="none"/><path class="diagram-edge edge-connection" data-element-id="ibd-edge-16" d="M 2240.0 1298.0 L 2256.0 1298.0 L 2256.0 1408.6 L 2265.5 1408.6 L 2265.5 1349.5 L 2344.0 1349.5 L 2344.0 1298.0 L 2472.0 1294.0 L 2472.0 1298.0 L 2520.0 1298.0 L 2520.0 1439.7 L 2568.0 1439.7 L 2568.0 1435.7 L 2560.0 1435.7 L 2756.0 1439.7 L 2756.0 1881.7 L 3076.0 1881.7 L 3076.0 1823.7 L 3060.0 1823.7" style="stroke:var(--diagram-edge);stroke-width:1.4px;stroke-dasharray:none" marker-start="none" marker-end="none"/><path class="diagram-edge edge-connection" data-element-id="ibd-edge-17" d="M 1980.0 1275.0 L 1964.0 1275.0 L 1964.0 1408.6 L 2284.0 1408.6 L 2284.0 1275.0 L 2472.0 1271.0 L 2472.0 1275.0 L 2520.0 1275.0 L 2520.0 681.3 L 2564.0 681.3" style="stroke:var(--diagram-edge);stroke-width:1.4px;stroke-dasharray:none" marker-start="none" marker-end="none"/><path class="diagram-edge edge-connection" data-element-id="ibd-edge-18" d="M 2824.0 667.7 L 3056.0 667.7 L 3056.0 701.7 L 3272.0 701.7 L 3272.0 735.7 L 3288.0 735.7" style="stroke:var(--diagram-edge);stroke-width:1.4px;stroke-dasharray:none" marker-start="none" marker-end="none"/><path class="diagram-edge edge-connection" data-element-id="ibd-edge-19" d="M 3548.0 701.7 L 3592.0 701.7 L 3592.0 546.9 L 3620.0 546.9 L 3620.0 441.1 L 3636.0 441.1" style="stroke:var(--diagram-edge);stroke-width:1.4px;stroke-dasharray:none" marker-start="none" marker-end="none"/></g></svg>