<svg xmlns="http://www.w3.org/2000/svg" width="4846" height="2564" viewBox="0 0 4846 2564" class="diagram-root interconnection-view"><style>.diagram-root{--diagram-paper:#1e1e1e;--diagram-ink:#d4d4d4;--diagram-muted:#a0a0a0;--diagram-faint:#6b6b6b;}</style><style>:root{color-scheme:light dark}.diagram-root{--diagram-paper:var(--vscode-editor-background,#1e1e1e);--diagram-ink:var(--vscode-editor-foreground,#d4d4d4);--diagram-muted:#a0a0a0;--diagram-faint:#6b6b6b;}.diagram-viewport{font-family:var(--vscode-editor-font-family, sans-serif)}.diagram-edge{fill:none;stroke:var(--diagram-ink);opacity:1}.diagram-edge-label{font-size:10px;font-weight:400;fill:var(--diagram-ink);paint-order:stroke;stroke:var(--diagram-paper);stroke-width:3px;stroke-linejoin:round}.diagram-port{fill:var(--diagram-paper);stroke:var(--diagram-ink);stroke-width:1.2px}.diagram-port-label{font-size:10px;fill:var(--diagram-ink)}.diagram-stereotype{font-size:9px;fill:var(--diagram-muted)}.diagram-title{fill:var(--diagram-ink);font-size:11px;font-weight:700}.diagram-typed-by{font-size:10px;font-style:italic;fill:var(--diagram-ink)}.diagram-detail{font-size:10px;fill:var(--diagram-ink)}.diagram-compartment-title{font-size:9px;font-weight:700;fill:var(--diagram-muted)}.diagram-divider{stroke:var(--diagram-faint);stroke-width:1px;opacity:.8}.node-background{fill:var(--diagram-paper);stroke:var(--diagram-ink)}@media print {.diagram-root{--diagram-paper:#ffffff;--diagram-ink:#000000;--diagram-muted:#333333;--diagram-faint:#b5b5b5;}}</style><defs><marker id="edge-arrow-solid" viewBox="0 -5 10 10" refX="9" refY="0" markerWidth="7" markerHeight="7" orient="auto"><path d="M0,-4L10,0L0,4Z" fill="context-stroke"/></marker><marker id="edge-arrow-open" viewBox="0 -5 10 10" refX="9" refY="0" markerWidth="8" markerHeight="8" orient="auto"><path d="M0,-4L10,0L0,4" fill="none" stroke="context-stroke" stroke-width="1.3"/></marker><marker id="edge-triangle-hollow" viewBox="0 -6 12 12" refX="11" refY="0" markerWidth="8" markerHeight="8" orient="auto"><path d="M0,0L10,-4L10,4Z" fill="var(--diagram-paper,#ffffff)" stroke="context-stroke" stroke-width="1.2"/></marker><marker id="edge-diamond-solid" viewBox="0 -6 12 12" refX="2" refY="0" markerWidth="9" markerHeight="9" orient="auto"><path d="M2,0L6,-4L10,0L6,4Z" fill="context-stroke" stroke="context-stroke" stroke-width="1"/></marker><marker id="edge-dot" viewBox="0 0 10 10" refX="5" refY="5" markerWidth="6" markerHeight="6"><circle cx="5" cy="5" r="2.4" fill="context-stroke"/></marker></defs><g class="diagram-viewport"><g class="diagram-node part-def" data-element-id="SurveillanceDrone.SurveillanceQuadrotorDrone" data-element-name="SurveillanceQuadrotorDrone" data-qualified-name="SurveillanceDrone.SurveillanceQuadrotorDrone"><rect class="node-background" x="72.0" y="72.0" width="4657.0" height="2420.0" rx="4.0" ry="4.0" style="fill:var(--diagram-paper);stroke:var(--diagram-ink);stroke-width:1.6px;stroke-dasharray:none"/><rect class="node-background" x="72.0" y="72.0" width="4657.0" height="40.0" rx="4.0" ry="4.0" style="fill:var(--diagram-paper);stroke:var(--diagram-ink);stroke-width:1.6px;stroke-dasharray:none"/><line class="diagram-divider" x1="78.0" y1="112.0" x2="4723.0" y2="112.0" style="stroke:var(--diagram-faint)"/><text x="2400.5" y="89.0" class="diagram-stereotype" text-anchor="middle">&#171;part def&#187;</text><text x="2400.5" y="105.0" class="diagram-title" text-anchor="middle">SurveillanceQuadrotorDrone</text></g><g class="diagram-node part" data-element-id="SurveillanceDrone.SurveillanceQuadrotorDrone.airframe" data-element-name="airframe" data-qualified-name="SurveillanceDrone.SurveillanceQuadrotorDrone.airframe"><rect class="node-background" x="144.0" y="144.0" width="260.0" height="100.0" rx="8.0" ry="8.0" style="fill:var(--diagram-paper);stroke:var(--diagram-ink);stroke-width:1.6px;stroke-dasharray:none"/><rect x="144.0" y="145.0" width="260.0" height="39" rx="6.0" ry="6.0" style="fill:var(--diagram-paper);stroke:none"/><text x="274.0" y="161.0" class="diagram-stereotype" text-anchor="middle">&#171;part&#187;</text><text x="274.0" y="175.0" class="diagram-title" text-anchor="middle">airframe</text><text x="274.0" y="187.0" class="diagram-typed-by" text-anchor="middle">: Airframe</text></g><g class="diagram-node part" data-element-id="SurveillanceDrone.SurveillanceQuadrotorDrone.cameraPayload" data-element-name="cameraPayload" data-qualified-name="SurveillanceDrone.SurveillanceQuadrotorDrone.cameraPayload"><rect class="node-background" x="2386.2" y="1904.0" width="260.0" height="136.0" rx="8.0" ry="8.0" style="fill:var(--diagram-paper);stroke:var(--diagram-ink);stroke-width:1.6px;stroke-dasharray:none"/><rect x="2386.2" y="1905.0" width="260.0" height="39" rx="6.0" ry="6.0" style="fill:var(--diagram-paper);stroke:none"/><text x="2516.2" y="1921.0" class="diagram-stereotype" text-anchor="middle">&#171;part&#187;</text><text x="2516.2" y="1935.0" class="diagram-title" text-anchor="middle">cameraPayload</text><text x="2516.2" y="1947.0" class="diagram-typed-by" text-anchor="middle">: CameraPayload</text><circle class="diagram-port" cx="2646.2" cy="1972.0" r="4" data-port-id="SurveillanceDrone.SurveillanceQuadrotorDrone.cameraPayload.videoOut"/><text class="diagram-port-label" x="2638.2" y="1976.0" text-anchor="end">videoOut</text><circle class="diagram-port" cx="2386.2" cy="1949.3" r="4" data-port-id="SurveillanceDrone.SurveillanceQuadrotorDrone.cameraPayload.control"/><text class="diagram-port-label" x="2394.2" y="1953.3" text-anchor="start">control</text><circle class="diagram-port" cx="2386.2" cy="1994.7" r="4" data-port-id="SurveillanceDrone.SurveillanceQuadrotorDrone.cameraPayload.pwr"/><text class="diagram-port-label" x="2394.2" y="1998.7" text-anchor="start">pwr</text></g><g class="diagram-node part" data-element-id="SurveillanceDrone.SurveillanceQuadrotorDrone.communication" data-element-name="communication" data-qualified-name="SurveillanceDrone.SurveillanceQuadrotorDrone.communication"><rect class="node-background" x="2728.5" y="2128.0" width="260.0" height="148.0" rx="8.0" ry="8.0" style="fill:var(--diagram-paper);stroke:var(--diagram-ink);stroke-width:1.6px;stroke-dasharray:none"/><rect x="2728.5" y="2129.0" width="260.0" height="39" rx="6.0" ry="6.0" style="fill:var(--diagram-paper);stroke:none"/><text x="2858.5" y="2145.0" class="diagram-stereotype" text-anchor="middle">&#171;part&#187;</text><text x="2858.5" y="2159.0" class="diagram-title" text-anchor="middle">communication</text><text x="2858.5" y="2171.0" class="diagram-typed-by" text-anchor="middle">: Communication</text><circle class="diagram-port" cx="2728.5" cy="2157.6" r="4" data-port-id="SurveillanceDrone.SurveillanceQuadrotorDrone.communication.c2In"/><text class="diagram-port-label" x="2736.5" y="2161.6" text-anchor="start">c2In</text><circle class="diagram-port" cx="2728.5" cy="2187.2" r="4" data-port-id="SurveillanceDrone.SurveillanceQuadrotorDrone.communication.telemetryIn"/><text class="diagram-port-label" x="2736.5" y="2191.2" text-anchor="start">telemetryIn</text><circle class="diagram-port" cx="2728.5" cy="2216.8" r="4" data-port-id="SurveillanceDrone.SurveillanceQuadrotorDrone.communication.videoIn"/><text class="diagram-port-label" x="2736.5" y="2220.8" text-anchor="start">videoIn</text><circle class="diagram-port" cx="2728.5" cy="2246.4" r="4" data-port-id="SurveillanceDrone.SurveillanceQuadrotorDrone.communication.pwr"/><text class="diagram-port-label" x="2736.5" y="2250.4" text-anchor="start">pwr</text></g><g class="diagram-node part" data-element-id="SurveillanceDrone.SurveillanceQuadrotorDrone.flightControl" data-element-name="flightControl" data-qualified-name="SurveillanceDrone.SurveillanceQuadrotorDrone.flightControl"><rect class="node-background" x="937.1" y="856.0" width="1856.0" height="460.0" rx="8.0" ry="8.0" style="fill:var(--diagram-paper);stroke:var(--diagram-ink);stroke-width:1.6px;stroke-dasharray:none"/><rect x="937.1" y="857.0" width="1856.0" height="39" rx="6.0" ry="6.0" style="fill:var(--diagram-paper);stroke:none"/><text x="1865.1" y="873.0" class="diagram-stereotype" text-anchor="middle">&#171;part&#187;</text><text x="1865.1" y="887.0" class="diagram-title" text-anchor="middle">flightControl</text><text x="1865.1" y="899.0" class="diagram-typed-by" text-anchor="middle">: FlightControlAndSensing</text></g><g class="diagram-node part" data-element-id="SurveillanceDrone.SurveillanceQuadrotorDrone.flightControl.barometer" data-element-name="barometer" data-qualified-name="SurveillanceDrone.SurveillanceQuadrotorDrone.flightControl.barometer"><rect class="node-background" x="1009.1" y="928.0" width="260.0" height="124.0" rx="8.0" ry="8.0" style="fill:var(--diagram-paper);stroke:var(--diagram-ink);stroke-width:1.6px;stroke-dasharray:none"/><rect x="1009.1" y="929.0" width="260.0" height="39" rx="6.0" ry="6.0" style="fill:var(--diagram-paper);stroke:none"/><text x="1139.1" y="945.0" class="diagram-stereotype" text-anchor="middle">&#171;part&#187;</text><text x="1139.1" y="959.0" class="diagram-title" text-anchor="middle">barometer</text><text x="1139.1" y="971.0" class="diagram-typed-by" text-anchor="middle">: Barometer</text><circle class="diagram-port" cx="1269.1" cy="990.0" r="4" data-port-id="SurveillanceDrone.SurveillanceQuadrotorDrone.flightControl.barometer.altitudeOut"/><text class="diagram-port-label" x="1261.1" y="994.0" text-anchor="end">altitudeOut</text><circle class="diagram-port" cx="1009.1" cy="990.0" r="4" data-port-id="SurveillanceDrone.SurveillanceQuadrotorDrone.flightControl.barometer.pwr"/><text class="diagram-port-label" x="1017.1" y="994.0" text-anchor="start">pwr</text></g><g class="diagram-node part" data-element-id="SurveillanceDrone.SurveillanceQuadrotorDrone.flightControl.flightController" data-element-name="flightController" data-qualified-name="SurveillanceDrone.SurveillanceQuadrotorDrone.flightControl.flightController"><rect class="node-background" x="1401.1" y="928.0" width="260.0" height="172.0" rx="8.0" ry="8.0" style="fill:var(--diagram-paper);stroke:var(--diagram-ink);stroke-width:1.6px;stroke-dasharray:none"/><rect x="1401.1" y="929.0" width="260.0" height="39" rx="6.0" ry="6.0" style="fill:var(--diagram-paper);stroke:none"/><text x="1531.1" y="945.0" class="diagram-stereotype" text-anchor="middle">&#171;part&#187;</text><text x="1531.1" y="959.0" class="diagram-title" text-anchor="middle">flightController</text><text x="1531.1" y="971.0" class="diagram-typed-by" text-anchor="middle">: FlightController</text><circle class="diagram-port" cx="1661.1" cy="985.3" r="4" data-port-id="SurveillanceDrone.SurveillanceQuadrotorDrone.flightControl.flightController.motorCmd"/><text class="diagram-port-label" x="1653.1" y="989.3" text-anchor="end">motorCmd</text><circle class="diagram-port" cx="1401.1" cy="962.4" r="4" data-port-id="SurveillanceDrone.SurveillanceQuadrotorDrone.flightControl.flightController.gimbalCmd"/><text class="diagram-port-label" x="1409.1" y="966.4" text-anchor="start">gimbalCmd</text><circle class="diagram-port" cx="1661.1" cy="1042.7" r="4" data-port-id="SurveillanceDrone.SurveillanceQuadrotorDrone.flightControl.flightController.telemetryOut"/><text class="diagram-port-label" x="1653.1" y="1046.7" text-anchor="end">telemetryOut</text><circle class="diagram-port" cx="1401.1" cy="996.8" r="4" data-port-id="SurveillanceDrone.SurveillanceQuadrotorDrone.flightControl.flightController.rcIn"/><text class="diagram-port-label" x="1409.1" y="1000.8" text-anchor="start">rcIn</text><circle class="diagram-port" cx="1401.1" cy="1031.2" r="4" data-port-id="SurveillanceDrone.SurveillanceQuadrotorDrone.flightControl.flightController.sensorIn"/><text class="diagram-port-label" x="1409.1" y="1035.2" text-anchor="start">sensorIn</text><circle class="diagram-port" cx="1401.1" cy="1065.6" r="4" data-port-id="SurveillanceDrone.SurveillanceQuadrotorDrone.flightControl.flightController.pwr"/><text class="diagram-port-label" x="1409.1" y="1069.6" text-anchor="start">pwr</text></g><g class="diagram-node part" data-element-id="SurveillanceDrone.SurveillanceQuadrotorDrone.flightControl.gnss" data-element-name="gnss" data-qualified-name="SurveillanceDrone.SurveillanceQuadrotorDrone.flightControl.gnss"><rect class="node-background" x="1793.1" y="928.0" width="260.0" height="124.0" rx="8.0" ry="8.0" style="fill:var(--diagram-paper);stroke:var(--diagram-ink);stroke-width:1.6px;stroke-dasharray:none"/><rect x="1793.1" y="929.0" width="260.0" height="39" rx="6.0" ry="6.0" style="fill:var(--diagram-paper);stroke:none"/><text x="1923.1" y="945.0" class="diagram-stereotype" text-anchor="middle">&#171;part&#187;</text><text x="1923.1" y="959.0" class="diagram-title" text-anchor="middle">gnss</text><text x="1923.1" y="971.0" class="diagram-typed-by" text-anchor="middle">: GNSSReceiver</text><circle class="diagram-port" cx="2053.1" cy="990.0" r="4" data-port-id="SurveillanceDrone.SurveillanceQuadrotorDrone.flightControl.gnss.positionOut"/><text class="diagram-port-label" x="2045.1" y="994.0" text-anchor="end">positionOut</text><circle class="diagram-port" cx="1793.1" cy="990.0" r="4" data-port-id="SurveillanceDrone.SurveillanceQuadrotorDrone.flightControl.gnss.pwr"/><text class="diagram-port-label" x="1801.1" y="994.0" text-anchor="start">pwr</text></g><g class="diagram-node part" data-element-id="SurveillanceDrone.SurveillanceQuadrotorDrone.flightControl.imu" data-element-name="imu" data-qualified-name="SurveillanceDrone.SurveillanceQuadrotorDrone.flightControl.imu"><rect class="node-background" x="2185.1" y="928.0" width="260.0" height="124.0" rx="8.0" ry="8.0" style="fill:var(--diagram-paper);stroke:var(--diagram-ink);stroke-width:1.6px;stroke-dasharray:none"/><rect x="2185.1" y="929.0" width="260.0" height="39" rx="6.0" ry="6.0" style="fill:var(--diagram-paper);stroke:none"/><text x="2315.1" y="945.0" class="diagram-stereotype" text-anchor="middle">&#171;part&#187;</text><text x="2315.1" y="959.0" class="diagram-title" text-anchor="middle">imu</text><text x="2315.1" y="971.0" class="diagram-typed-by" text-anchor="middle">: IMU</text><circle class="diagram-port" cx="2445.1" cy="990.0" r="4" data-port-id="SurveillanceDrone.SurveillanceQuadrotorDrone.flightControl.imu.dataOut"/><text class="diagram-port-label" x="2437.1" y="994.0" text-anchor="end">dataOut</text><circle class="diagram-port" cx="2185.1" cy="990.0" r="4" data-port-id="SurveillanceDrone.SurveillanceQuadrotorDrone.flightControl.imu.pwr"/><text class="diagram-port-label" x="2193.1" y="994.0" text-anchor="start">pwr</text></g><g class="diagram-node part" data-element-id="SurveillanceDrone.SurveillanceQuadrotorDrone.gimbal" data-element-name="gimbal" data-qualified-name="SurveillanceDrone.SurveillanceQuadrotorDrone.gimbal"><rect class="node-background" x="657.5" y="1404.0" width="260.0" height="136.0" rx="8.0" ry="8.0" style="fill:var(--diagram-paper);stroke:var(--diagram-ink);stroke-width:1.6px;stroke-dasharray:none"/><rect x="657.5" y="1405.0" width="260.0" height="39" rx="6.0" ry="6.0" style="fill:var(--diagram-paper);stroke:none"/><text x="787.5" y="1421.0" class="diagram-stereotype" text-anchor="middle">&#171;part&#187;</text><text x="787.5" y="1435.0" class="diagram-title" text-anchor="middle">gimbal</text><text x="787.5" y="1447.0" class="diagram-typed-by" text-anchor="middle">: Gimbal</text><circle class="diagram-port" cx="657.5" cy="1449.3" r="4" data-port-id="SurveillanceDrone.SurveillanceQuadrotorDrone.gimbal.cmd"/><text class="diagram-port-label" x="665.5" y="1453.3" text-anchor="start">cmd</text><circle class="diagram-port" cx="917.5" cy="1472.0" r="4" data-port-id="SurveillanceDrone.SurveillanceQuadrotorDrone.gimbal.cameraCtrl"/><text class="diagram-port-label" x="909.5" y="1476.0" text-anchor="end">cameraCtrl</text><circle class="diagram-port" cx="657.5" cy="1494.7" r="4" data-port-id="SurveillanceDrone.SurveillanceQuadrotorDrone.gimbal.pwr"/><text class="diagram-port-label" x="665.5" y="1498.7" text-anchor="start">pwr</text></g><g class="diagram-node part" data-element-id="SurveillanceDrone.SurveillanceQuadrotorDrone.power" data-element-name="power" data-qualified-name="SurveillanceDrone.SurveillanceQuadrotorDrone.power"><rect class="node-background" x="1882.2" y="144.0" width="592.0" height="624.0" rx="8.0" ry="8.0" style="fill:var(--diagram-paper);stroke:var(--diagram-ink);stroke-width:1.6px;stroke-dasharray:none"/><rect x="1882.2" y="145.0" width="592.0" height="39" rx="6.0" ry="6.0" style="fill:var(--diagram-paper);stroke:none"/><text x="2178.2" y="161.0" class="diagram-stereotype" text-anchor="middle">&#171;part&#187;</text><text x="2178.2" y="175.0" class="diagram-title" text-anchor="middle">power</text><text x="2178.2" y="187.0" class="diagram-typed-by" text-anchor="middle">: Power</text></g><g class="diagram-node part" data-element-id="SurveillanceDrone.SurveillanceQuadrotorDrone.power.battery" data-element-name="battery" data-qualified-name="SurveillanceDrone.SurveillanceQuadrotorDrone.power.battery"><rect class="node-background" x="1954.2" y="216.0" width="260.0" height="112.0" rx="8.0" ry="8.0" style="fill:var(--diagram-paper);stroke:var(--diagram-ink);stroke-width:1.6px;stroke-dasharray:none"/><rect x="1954.2" y="217.0" width="260.0" height="39" rx="6.0" ry="6.0" style="fill:var(--diagram-paper);stroke:none"/><text x="2084.2" y="233.0" class="diagram-stereotype" text-anchor="middle">&#171;part&#187;</text><text x="2084.2" y="247.0" class="diagram-title" text-anchor="middle">battery</text><text x="2084.2" y="259.0" class="diagram-typed-by" text-anchor="middle">: Battery</text><circle class="diagram-port" cx="2214.2" cy="272.0" r="4" data-port-id="SurveillanceDrone.SurveillanceQuadrotorDrone.power.battery.pwrOut"/><text class="diagram-port-label" x="2206.2" y="276.0" text-anchor="end">pwrOut</text></g><g class="diagram-node part" data-element-id="SurveillanceDrone.SurveillanceQuadrotorDrone.power.distribution" data-element-name="distribution" data-qualified-name="SurveillanceDrone.SurveillanceQuadrotorDrone.power.distribution"><rect class="node-background" x="1954.2" y="416.0" width="260.0" height="136.0" rx="8.0" ry="8.0" style="fill:var(--diagram-paper);stroke:var(--diagram-ink);stroke-width:1.6px;stroke-dasharray:none"/><rect x="1954.2" y="417.0" width="260.0" height="39" rx="6.0" ry="6.0" style="fill:var(--diagram-paper);stroke:none"/><text x="2084.2" y="433.0" class="diagram-stereotype" text-anchor="middle">&#171;part&#187;</text><text x="2084.2" y="447.0" class="diagram-title" text-anchor="middle">distribution</text><text x="2084.2" y="459.0" class="diagram-typed-by" text-anchor="middle">: PowerDistribution</text><circle class="diagram-port" cx="1954.2" cy="484.0" r="4" data-port-id="SurveillanceDrone.SurveillanceQuadrotorDrone.power.distribution.mainPower"/><text class="diagram-port-label" x="1962.2" y="488.0" text-anchor="start">mainPower</text><circle class="diagram-port" cx="2214.2" cy="461.3" r="4" data-port-id="SurveillanceDrone.SurveillanceQuadrotorDrone.power.distribution.regulated5V"/><text class="diagram-port-label" x="2206.2" y="465.3" text-anchor="end">regulated5V</text><circle class="diagram-port" cx="2214.2" cy="506.7" r="4" data-port-id="SurveillanceDrone.SurveillanceQuadrotorDrone.power.distribution.regulated12V"/><text class="diagram-port-label" x="2206.2" y="510.7" text-anchor="end">regulated12V</text></g><g class="diagram-node part" data-element-id="SurveillanceDrone.SurveillanceQuadrotorDrone.propulsion" data-element-name="propulsion" data-qualified-name="SurveillanceDrone.SurveillanceQuadrotorDrone.propulsion"><rect class="node-background" x="2525.0" y="1404.0" width="1856.0" height="412.0" rx="8.0" ry="8.0" style="fill:var(--diagram-paper);stroke:var(--diagram-ink);stroke-width:1.6px;stroke-dasharray:none"/><rect x="2525.0" y="1405.0" width="1856.0" height="39" rx="6.0" ry="6.0" style="fill:var(--diagram-paper);stroke:none"/><text x="3453.0" y="1421.0" class="diagram-stereotype" text-anchor="middle">&#171;part&#187;</text><text x="3453.0" y="1435.0" class="diagram-title" text-anchor="middle">propulsion</text><text x="3453.0" y="1447.0" class="diagram-typed-by" text-anchor="middle">: Propulsion</text></g><g class="diagram-node part" data-element-id="SurveillanceDrone.SurveillanceQuadrotorDrone.propulsion.propulsionUnit1" data-element-name="propulsionUnit1" data-qualified-name="SurveillanceDrone.SurveillanceQuadrotorDrone.propulsion.propulsionUnit1"><rect class="node-background" x="2597.0" y="1476.0" width="260.0" height="124.0" rx="8.0" ry="8.0" style="fill:var(--diagram-paper);stroke:var(--diagram-ink);stroke-width:1.6px;stroke-dasharray:none"/><rect x="2597.0" y="1477.0" width="260.0" height="39" rx="6.0" ry="6.0" style="fill:var(--diagram-paper);stroke:none"/><text x="2727.0" y="1493.0" class="diagram-stereotype" text-anchor="middle">&#171;part&#187;</text><text x="2727.0" y="1507.0" class="diagram-title" text-anchor="middle">propulsionUnit1</text><text x="2727.0" y="1519.0" class="diagram-typed-by" text-anchor="middle">: PropulsionUnit</text><circle class="diagram-port" cx="2857.0" cy="1538.0" r="4" data-port-id="SurveillanceDrone.SurveillanceQuadrotorDrone.propulsion.propulsionUnit1.cmd"/><text class="diagram-port-label" x="2849.0" y="1542.0" text-anchor="end">cmd</text><circle class="diagram-port" cx="2597.0" cy="1538.0" r="4" data-port-id="SurveillanceDrone.SurveillanceQuadrotorDrone.propulsion.propulsionUnit1.pwr"/><text class="diagram-port-label" x="2605.0" y="1542.0" text-anchor="start">pwr</text></g><g class="diagram-node part" data-element-id="SurveillanceDrone.SurveillanceQuadrotorDrone.propulsion.propulsionUnit2" data-element-name="propulsionUnit2" data-qualified-name="SurveillanceDrone.SurveillanceQuadrotorDrone.propulsion.propulsionUnit2"><rect class="node-background" x="2989.0" y="1476.0" width="260.0" height="124.0" rx="8.0" ry="8.0" style="fill:var(--diagram-paper);stroke:var(--diagram-ink);stroke-width:1.6px;stroke-dasharray:none"/><rect x="2989.0" y="1477.0" width="260.0" height="39" rx="6.0" ry="6.0" style="fill:var(--diagram-paper);stroke:none"/><text x="3119.0" y="1493.0" class="diagram-stereotype" text-anchor="middle">&#171;part&#187;</text><text x="3119.0" y="1507.0" class="diagram-title" text-anchor="middle">propulsionUnit2</text><text x="3119.0" y="1519.0" class="diagram-typed-by" text-anchor="middle">: PropulsionUnit</text><circle class="diagram-port" cx="3249.0" cy="1538.0" r="4" data-port-id="SurveillanceDrone.SurveillanceQuadrotorDrone.propulsion.propulsionUnit2.cmd"/><text class="diagram-port-label" x="3241.0" y="1542.0" text-anchor="end">cmd</text><circle class="diagram-port" cx="2989.0" cy="1538.0" r="4" data-port-id="SurveillanceDrone.SurveillanceQuadrotorDrone.propulsion.propulsionUnit2.pwr"/><text class="diagram-port-label" x="2997.0" y="1542.0" text-anchor="start">pwr</text></g><g class="diagram-node part" data-element-id="SurveillanceDrone.SurveillanceQuadrotorDrone.propulsion.propulsionUnit3" data-element-name="propulsionUnit3" data-qualified-name="SurveillanceDrone.SurveillanceQuadrotorDrone.propulsion.propulsionUnit3"><rect class="node-background" x="3381.0" y="1476.0" width="260.0" height="124.0" rx="8.0" ry="8.0" style="fill:var(--diagram-paper);stroke:var(--diagram-ink);stroke-width:1.6px;stroke-dasharray:none"/><rect x="3381.0" y="1477.0" width="260.0" height="39" rx="6.0" ry="6.0" style="fill:var(--diagram-paper);stroke:none"/><text x="3511.0" y="1493.0" class="diagram-stereotype" text-anchor="middle">&#171;part&#187;</text><text x="3511.0" y="1507.0" class="diagram-title" text-anchor="middle">propulsionUnit3</text><text x="3511.0" y="1519.0" class="diagram-typed-by" text-anchor="middle">: PropulsionUnit</text><circle class="diagram-port" cx="3641.0" cy="1538.0" r="4" data-port-id="SurveillanceDrone.SurveillanceQuadrotorDrone.propulsion.propulsionUnit3.cmd"/><text class="diagram-port-label" x="3633.0" y="1542.0" text-anchor="end">cmd</text><circle class="diagram-port" cx="3381.0" cy="1538.0" r="4" data-port-id="SurveillanceDrone.SurveillanceQuadrotorDrone.propulsion.propulsionUnit3.pwr"/><text class="diagram-port-label" x="3389.0" y="1542.0" text-anchor="start">pwr</text></g><g class="diagram-node part" data-element-id="SurveillanceDrone.SurveillanceQuadrotorDrone.propulsion.propulsionUnit4" data-element-name="propulsionUnit4" data-qualified-name="SurveillanceDrone.SurveillanceQuadrotorDrone.propulsion.propulsionUnit4"><rect class="node-background" x="3773.0" y="1476.0" width="260.0" height="124.0" rx="8.0" ry="8.0" style="fill:var(--diagram-paper);stroke:var(--diagram-ink);stroke-width:1.6px;stroke-dasharray:none"/><rect x="3773.0" y="1477.0" width="260.0" height="39" rx="6.0" ry="6.0" style="fill:var(--diagram-paper);stroke:none"/><text x="3903.0" y="1493.0" class="diagram-stereotype" text-anchor="middle">&#171;part&#187;</text><text x="3903.0" y="1507.0" class="diagram-title" text-anchor="middle">propulsionUnit4</text><text x="3903.0" y="1519.0" class="diagram-typed-by" text-anchor="middle">: PropulsionUnit</text><circle class="diagram-port" cx="4033.0" cy="1538.0" r="4" data-port-id="SurveillanceDrone.SurveillanceQuadrotorDrone.propulsion.propulsionUnit4.cmd"/><text class="diagram-port-label" x="4025.0" y="1542.0" text-anchor="end">cmd</text><circle class="diagram-port" cx="3773.0" cy="1538.0" r="4" data-port-id="SurveillanceDrone.SurveillanceQuadrotorDrone.propulsion.propulsionUnit4.pwr"/><text class="diagram-port-label" x="3781.0" y="1542.0" text-anchor="start">pwr</text></g><path class="diagram-edge edge-connection" data-element-id="ibd-edge-9" d="M 2646.2 1972.0 L 2670.2 1972.0 L 2670.2 2056.0 L 2704.5 2056.0 L 2704.5 2216.8 L 2728.5 2216.8" style="stroke:var(--diagram-ink);stroke-width:1.4px;stroke-dasharray:none" marker-start="none" marker-end="none"/><path class="diagram-edge edge-connection" data-element-id="ibd-edge-10" d="M 1661.1 1042.7 L 1685.1 1042.7 L 1685.1 1323.2 L 1109.5 1323.2 L 1109.5 1870.5 L 2748.5 1870.5 L 2748.5 2112.0 L 2704.5 2112.0 L 2704.5 2187.2 L 2728.5 2187.2" style="stroke:var(--diagram-ink);stroke-width:1.4px;stroke-dasharray:none" marker-start="none" marker-end="none"/><path class="diagram-edge edge-connection" data-element-id="ibd-edge-7" d="M 1401.1 962.4 L 1377.1 962.4 L 1377.1 1386.2 L 633.5 1386.2 L 633.5 1449.3 L 657.5 1449.3" style="stroke:var(--diagram-ink);stroke-width:1.4px;stroke-dasharray:none" marker-start="none" marker-end="none"/><path class="diagram-edge edge-connection" data-element-id="ibd-edge-3" d="M 1661.1 985.3 L 1685.1 985.3 L 1685.1 1333.8 L 2881.0 1333.8 L 2881.0 1538.0 L 2857.0 1538.0" style="stroke:var(--diagram-ink);stroke-width:1.4px;stroke-dasharray:none" marker-start="none" marker-end="none"/><path class="diagram-edge edge-connection" data-element-id="ibd-edge-4" d="M 1661.1 985.3 L 1685.1 985.3 L 1685.1 1333.8 L 3273.0 1333.8 L 3273.0 1538.0 L 3249.0 1538.0" style="stroke:var(--diagram-ink);stroke-width:1.4px;stroke-dasharray:none" marker-start="none" marker-end="none"/><path class="diagram-edge edge-connection" data-element-id="ibd-edge-5" d="M 1661.1 985.3 L 1685.1 985.3 L 1685.1 1333.8 L 3665.0 1333.8 L 3665.0 1538.0 L 3641.0 1538.0" style="stroke:var(--diagram-ink);stroke-width:1.4px;stroke-dasharray:none" marker-start="none" marker-end="none"/><path class="diagram-edge edge-connection" data-element-id="ibd-edge-6" d="M 1661.1 985.3 L 1685.1 985.3 L 1685.1 1333.8 L 4057.0 1333.8 L 4057.0 1538.0 L 4033.0 1538.0" style="stroke:var(--diagram-ink);stroke-width:1.4px;stroke-dasharray:none" marker-start="none" marker-end="none"/><path class="diagram-edge edge-connection" data-element-id="ibd-edge-8" d="M 917.5 1472.0 L 941.5 1472.0 L 941.5 1828.5 L 2362.2 1828.5 L 2362.2 1949.3 L 2386.2 1949.3" style="stroke:var(--diagram-ink);stroke-width:1.4px;stroke-dasharray:none" marker-start="none" marker-end="none"/><path class="diagram-edge edge-connection" data-element-id="ibd-edge-11" d="M 2214.2 272.0 L 2218.2 272.0 L 2218.2 372.0 L 1950.2 372.0 L 1950.2 484.0 L 1954.2 484.0" style="stroke:var(--diagram-ink);stroke-width:1.4px;stroke-dasharray:none" marker-start="none" marker-end="none"/><path class="diagram-edge edge-connection" data-element-id="ibd-edge-14" d="M 2214.2 461.3 L 2238.2 461.3 L 2238.2 812.0 L 692.9 812.0 L 692.9 1396.8 L 964.8 1396.8 L 964.8 1849.5 L 2362.2 1849.5 L 2362.2 1994.7 L 2386.2 1994.7" style="stroke:var(--diagram-ink);stroke-width:1.4px;stroke-dasharray:none" marker-start="none" marker-end="none"/><path class="diagram-edge edge-connection" data-element-id="ibd-edge-15" d="M 2214.2 461.3 L 2238.2 461.3 L 2238.2 812.0 L 2840.3 812.0 L 2840.3 1375.8 L 1175.7 1375.8 L 1175.7 1891.5 L 2813.7 1891.5 L 2813.7 2084.0 L 2704.5 2084.0 L 2704.5 2246.4 L 2728.5 2246.4" style="stroke:var(--diagram-ink);stroke-width:1.4px;stroke-dasharray:none" marker-start="none" marker-end="none"/><path class="diagram-edge edge-connection" data-element-id="ibd-edge-12" d="M 2214.2 461.3 L 2238.2 461.3 L 2238.2 812.0 L 1377.1 812.0 L 1377.1 1065.6 L 1401.1 1065.6" style="stroke:var(--diagram-ink);stroke-width:1.4px;stroke-dasharray:none" marker-start="none" marker-end="none"/><path class="diagram-edge edge-connection" data-element-id="ibd-edge-13" d="M 2214.2 461.3 L 2238.2 461.3 L 2238.2 812.0 L 548.0 812.0 L 548.0 1396.8 L 633.5 1396.8 L 633.5 1494.7 L 657.5 1494.7" style="stroke:var(--diagram-ink);stroke-width:1.4px;stroke-dasharray:none" marker-start="none" marker-end="none"/><path class="diagram-edge edge-connection" data-element-id="ibd-edge-16" d="M 2214.2 461.3 L 2238.2 461.3 L 2238.2 812.0 L 3616.1 812.0 L 3616.1 1365.2 L 2573.0 1365.2 L 2573.0 1538.0 L 2597.0 1538.0" style="stroke:var(--diagram-ink);stroke-width:1.4px;stroke-dasharray:none" marker-start="none" marker-end="none"/><path class="diagram-edge edge-connection" data-element-id="ibd-edge-17" d="M 2214.2 461.3 L 2238.2 461.3 L 2238.2 812.0 L 3681.3 812.0 L 3681.3 1354.8 L 2965.0 1354.8 L 2965.0 1538.0 L 2989.0 1538.0" style="stroke:var(--diagram-ink);stroke-width:1.4px;stroke-dasharray:none" marker-start="none" marker-end="none"/><path class="diagram-edge edge-connection" data-element-id="ibd-edge-18" d="M 2214.2 461.3 L 2238.2 461.3 L 2238.2 812.0 L 3746.5 812.0 L 3746.5 1344.2 L 3357.0 1344.2 L 3357.0 1538.0 L 3381.0 1538.0" style="stroke:var(--diagram-ink);stroke-width:1.4px;stroke-dasharray:none" marker-start="none" marker-end="none"/><path class="diagram-edge edge-connection" data-element-id="ibd-edge-19" d="M 2214.2 461.3 L 2238.2 461.3 L 2238.2 812.0 L 3811.7 812.0 L 3811.7 1344.2 L 3749.0 1344.2 L 3749.0 1538.0 L 3773.0 1538.0" style="stroke:var(--diagram-ink);stroke-width:1.4px;stroke-dasharray:none" marker-start="none" marker-end="none"/></g></svg>